<svg width="298" height="99" viewBox="0 0 298 99" fill="none" xmlns="http://www.w3.org/2000/svg">
<path d="M92.262 45L81.5361 32.5994V45H76.9905V17.2881H81.5361V29.9279L92.3018 17.2881H98.0037L85.962 31.164L98.2031 45H92.262ZM122.359 33.4766C122.359 34.3007 122.306 35.045 122.199 35.7095H105.413C105.546 37.4639 106.197 38.8728 107.366 39.9361C108.536 40.9994 109.972 41.531 111.673 41.531C114.118 41.531 115.846 40.5076 116.856 38.4608H121.761C121.096 40.481 119.887 42.1424 118.132 43.4449C116.404 44.7209 114.251 45.3589 111.673 45.3589C109.573 45.3589 107.685 44.8937 106.011 43.9633C104.363 43.0063 103.06 41.6772 102.103 39.976C101.173 38.2481 100.708 36.2545 100.708 33.995C100.708 31.7355 101.16 29.7551 102.063 28.0538C102.994 26.326 104.283 24.9969 105.931 24.0665C107.606 23.1361 109.52 22.671 111.673 22.671C113.746 22.671 115.594 23.1228 117.215 24.0266C118.837 24.9304 120.099 26.2064 121.003 27.8545C121.907 29.476 122.359 31.35 122.359 33.4766ZM117.614 32.0412C117.587 30.3665 116.989 29.0241 115.82 28.014C114.65 27.0038 113.201 26.4988 111.473 26.4988C109.905 26.4988 108.563 27.0038 107.446 28.014C106.33 28.9975 105.665 30.3399 105.453 32.0412H117.614ZM131.378 15.4938V45H126.832V15.4938H131.378ZM135.83 33.9152C135.83 31.7089 136.282 29.7551 137.186 28.0538C138.116 26.3526 139.366 25.0368 140.934 24.1064C142.529 23.1494 144.284 22.671 146.197 22.671C147.925 22.671 149.427 23.0165 150.703 23.7077C152.006 24.3722 153.042 25.2096 153.813 26.2197V23.0298H158.399V45H153.813V41.7304C153.042 42.7671 151.992 43.631 150.663 44.3222C149.334 45.0133 147.819 45.3589 146.118 45.3589C144.23 45.3589 142.503 44.8804 140.934 43.9234C139.366 42.9399 138.116 41.5842 137.186 39.8563C136.282 38.1019 135.83 36.1215 135.83 33.9152ZM153.813 33.995C153.813 32.4798 153.494 31.164 152.856 30.0475C152.245 28.9311 151.434 28.0804 150.424 27.4956C149.414 26.9108 148.324 26.6184 147.154 26.6184C145.985 26.6184 144.895 26.9108 143.885 27.4956C142.875 28.0538 142.051 28.8912 141.413 30.0076C140.801 31.0975 140.496 32.4 140.496 33.9152C140.496 35.4304 140.801 36.7595 141.413 37.9026C142.051 39.0456 142.875 39.9228 143.885 40.5342C144.922 41.119 146.011 41.4114 147.154 41.4114C148.324 41.4114 149.414 41.119 150.424 40.5342C151.434 39.9494 152.245 39.0988 152.856 37.9823C153.494 36.8393 153.813 35.5102 153.813 33.995ZM172.344 45.3589C170.616 45.3589 169.061 45.0532 167.679 44.4418C166.323 43.8038 165.246 42.9532 164.449 41.8899C163.651 40.8 163.226 39.5905 163.173 38.2614H167.878C167.958 39.1918 168.396 39.976 169.194 40.6139C170.018 41.2253 171.041 41.531 172.264 41.531C173.54 41.531 174.524 41.2918 175.215 40.8133C175.932 40.3082 176.291 39.6703 176.291 38.8994C176.291 38.0753 175.892 37.4639 175.095 37.0652C174.324 36.6665 173.088 36.2279 171.387 35.7494C169.739 35.2975 168.396 34.8589 167.36 34.4336C166.323 34.0083 165.419 33.357 164.648 32.4798C163.904 31.6026 163.532 30.4462 163.532 29.0108C163.532 27.8412 163.877 26.7779 164.568 25.8209C165.26 24.8374 166.243 24.0665 167.519 23.5083C168.822 22.9501 170.31 22.671 171.985 22.671C174.484 22.671 176.491 23.3089 178.006 24.5849C179.548 25.8342 180.372 27.5488 180.478 29.7285H175.932C175.853 28.745 175.454 27.9608 174.736 27.376C174.018 26.7912 173.048 26.4988 171.825 26.4988C170.629 26.4988 169.712 26.7247 169.074 27.1766C168.436 27.6285 168.117 28.2266 168.117 28.9709C168.117 29.5557 168.33 30.0475 168.755 30.4462C169.18 30.845 169.699 31.164 170.31 31.4032C170.922 31.6159 171.825 31.895 173.022 32.2405C174.617 32.6659 175.919 33.1045 176.929 33.5564C177.966 33.9817 178.856 34.6196 179.601 35.4703C180.345 36.3209 180.73 37.4507 180.757 38.8595C180.757 40.1089 180.411 41.2253 179.72 42.2089C179.029 43.1924 178.046 43.9633 176.77 44.5215C175.52 45.0797 174.045 45.3589 172.344 45.3589ZM211.298 45L200.572 32.5994V45H196.026V17.2881H200.572V29.9279L211.338 17.2881H217.04L204.998 31.164L217.239 45H211.298ZM219.743 33.9152C219.743 31.7089 220.195 29.7551 221.099 28.0538C222.03 26.3526 223.279 25.0368 224.847 24.1064C226.442 23.1494 228.197 22.671 230.111 22.671C231.838 22.671 233.34 23.0165 234.616 23.7077C235.919 24.3722 236.955 25.2096 237.726 26.2197V23.0298H242.312V45H237.726V41.7304C236.955 42.7671 235.905 43.631 234.576 44.3222C233.247 45.0133 231.732 45.3589 230.031 45.3589C228.143 45.3589 226.416 44.8804 224.847 43.9234C223.279 42.9399 222.03 41.5842 221.099 39.8563C220.195 38.1019 219.743 36.1215 219.743 33.9152ZM237.726 33.995C237.726 32.4798 237.407 31.164 236.769 30.0475C236.158 28.9311 235.347 28.0804 234.337 27.4956C233.327 26.9108 232.237 26.6184 231.067 26.6184C229.898 26.6184 228.808 26.9108 227.798 27.4956C226.788 28.0538 225.964 28.8912 225.326 30.0076C224.714 31.0975 224.409 32.4 224.409 33.9152C224.409 35.4304 224.714 36.7595 225.326 37.9026C225.964 39.0456 226.788 39.9228 227.798 40.5342C228.835 41.119 229.924 41.4114 231.067 41.4114C232.237 41.4114 233.327 41.119 234.337 40.5342C235.347 39.9494 236.158 39.0988 236.769 37.9823C237.407 36.8393 237.726 35.5102 237.726 33.995ZM274.878 22.671C276.605 22.671 278.147 23.0298 279.503 23.7475C280.885 24.4652 281.962 25.5285 282.733 26.9374C283.53 28.3463 283.929 30.0475 283.929 32.0412V45H279.423V32.719C279.423 30.7519 278.931 29.25 277.948 28.2133C276.964 27.1501 275.622 26.6184 273.921 26.6184C272.219 26.6184 270.864 27.1501 269.854 28.2133C268.87 29.25 268.378 30.7519 268.378 32.719V45H263.873V32.719C263.873 30.7519 263.381 29.25 262.397 28.2133C261.414 27.1501 260.071 26.6184 258.37 26.6184C256.669 26.6184 255.313 27.1501 254.303 28.2133C253.319 29.25 252.828 30.7519 252.828 32.719V45H248.282V23.0298H252.828V25.5418C253.572 24.638 254.516 23.9336 255.659 23.4285C256.802 22.9235 258.025 22.671 259.327 22.671C261.081 22.671 262.65 23.0431 264.032 23.7874C265.414 24.5317 266.478 25.6083 267.222 27.0171C267.887 25.688 268.923 24.638 270.332 23.8671C271.741 23.0697 273.256 22.671 274.878 22.671ZM292.026 20.1191C291.202 20.1191 290.51 19.8399 289.952 19.2817C289.394 18.7235 289.115 18.0324 289.115 17.2083C289.115 16.3843 289.394 15.6931 289.952 15.1349C290.51 14.5767 291.202 14.2976 292.026 14.2976C292.823 14.2976 293.501 14.5767 294.059 15.1349C294.617 15.6931 294.897 16.3843 294.897 17.2083C294.897 18.0324 294.617 18.7235 294.059 19.2817C293.501 19.8399 292.823 20.1191 292.026 20.1191ZM294.259 23.0298V45H289.713V23.0298H294.259Z" fill="#202020" fill-opacity="0.72"/>
<path fill-rule="evenodd" clip-rule="evenodd" d="M0 0H54.2509V8.88817H50.7508V3.55527H3.50006V44.4409H40.9279V47.9961H0V0ZM52.5009 23.1093C53.8933 23.1093 55.2287 22.5474 56.2132 21.5473C57.1978 20.5472 57.751 19.1907 57.751 17.7763C57.751 16.362 57.1978 15.0055 56.2132 14.0054C55.2287 13.0053 53.8933 12.4434 52.5009 12.4434C51.1085 12.4434 49.7731 13.0053 48.7885 14.0054C47.8039 15.0055 47.2508 16.362 47.2508 17.7763C47.2508 19.1907 47.8039 20.5472 48.7885 21.5473C49.7731 22.5474 51.1085 23.1093 52.5009 23.1093ZM56.0552 26.6823C58.3285 26.6823 60.1275 27.7204 61.3053 29.3239C62.406 30.826 62.8715 32.6836 62.9765 34.399C63.0794 36.1587 62.8434 37.9218 62.2818 39.5897C61.7568 41.1363 60.8695 42.7361 59.501 43.8329V61.3284C59.5023 61.9983 59.2552 62.6442 58.809 63.1376C58.3628 63.6309 57.7501 63.9355 57.0928 63.9909C56.4355 64.0462 55.7818 63.8482 55.2617 63.4362C54.7416 63.0242 54.3932 62.4285 54.2859 61.7675L52.0284 47.9961H51.5069L48.9553 61.819C48.8341 62.4714 48.4778 63.0544 47.9558 63.454C47.4339 63.8537 46.784 64.0411 46.1332 63.9798C45.4824 63.9184 44.8775 63.6127 44.4369 63.1223C43.9963 62.632 43.7516 61.9923 43.7507 61.3284V35.9669C43.4008 36.5084 43.0554 37.053 42.7147 37.6005L42.5782 37.8192L42.5432 37.8761L42.5345 37.8921C42.2986 38.2767 41.9701 38.594 41.58 38.8139C41.1899 39.0338 40.7511 39.1491 40.3049 39.1489H31.5548C30.8586 39.1489 30.1909 38.8679 29.6986 38.3679C29.2063 37.8678 28.9297 37.1896 28.9297 36.4824C28.9297 35.7752 29.2063 35.097 29.6986 34.5969C30.1909 34.0969 30.8586 33.816 31.5548 33.816H38.8646C39.2899 33.1476 39.8499 32.2801 40.4379 31.409C41.0504 30.5007 41.7259 29.539 42.328 28.7852C42.6202 28.4173 42.9475 28.0333 43.2765 27.7187C43.4375 27.564 43.6615 27.3631 43.9345 27.1854C44.4163 26.8641 44.9787 26.6901 45.555 26.6841L56.0552 26.6823Z" fill="#818181"/>
<path d="M68.6294 72.29L69.0974 73.135L67.2904 73.889L69.1104 74.63L68.6164 75.501L67.0434 74.357L67.2514 76.32H66.2764L66.4714 74.357L64.8984 75.514L64.3914 74.63L66.1984 73.876L64.3914 73.148L64.8724 72.277L66.4844 73.434L66.2764 71.458H67.2644L67.0434 73.434L68.6294 72.29ZM76.3036 71.939V72.901H72.3646V75.956H75.5626V76.918H72.3646V81H71.1816V71.939H76.3036ZM81.0994 81.117C80.4321 81.117 79.8254 80.9653 79.2794 80.662C78.7421 80.3587 78.3174 79.9297 78.0054 79.375C77.7021 78.8117 77.5504 78.1617 77.5504 77.425C77.5504 76.697 77.7064 76.0557 78.0184 75.501C78.3391 74.9377 78.7724 74.5087 79.3184 74.214C79.8644 73.9107 80.4754 73.759 81.1514 73.759C81.8274 73.759 82.4384 73.9107 82.9844 74.214C83.5304 74.5087 83.9594 74.9333 84.2714 75.488C84.5921 76.0427 84.7524 76.6883 84.7524 77.425C84.7524 78.1617 84.5878 78.8117 84.2584 79.375C83.9378 79.9297 83.5001 80.3587 82.9454 80.662C82.3908 80.9653 81.7754 81.117 81.0994 81.117ZM81.0994 80.077C81.5241 80.077 81.9228 79.9773 82.2954 79.778C82.6681 79.5787 82.9671 79.2797 83.1924 78.881C83.4264 78.4823 83.5434 77.997 83.5434 77.425C83.5434 76.853 83.4308 76.3677 83.2054 75.969C82.9801 75.5703 82.6854 75.2757 82.3214 75.085C81.9574 74.8857 81.5631 74.786 81.1384 74.786C80.7051 74.786 80.3064 74.8857 79.9424 75.085C79.5871 75.2757 79.3011 75.5703 79.0844 75.969C78.8678 76.3677 78.7594 76.853 78.7594 77.425C78.7594 78.0057 78.8634 78.4953 79.0714 78.894C79.2881 79.2927 79.5741 79.5917 79.9294 79.791C80.2848 79.9817 80.6748 80.077 81.0994 80.077ZM87.7509 75.033C87.9589 74.6257 88.2535 74.3093 88.6349 74.084C89.0249 73.8587 89.4972 73.746 90.0519 73.746V74.968H89.7399C88.4139 74.968 87.7509 75.6873 87.7509 77.126V81H86.5679V73.876H87.7509V75.033ZM100.244 73.746C100.799 73.746 101.293 73.863 101.726 74.097C102.16 74.3223 102.502 74.6647 102.753 75.124C103.005 75.5833 103.13 76.1423 103.13 76.801V81H101.96V76.97C101.96 76.2593 101.783 75.7177 101.427 75.345C101.081 74.9637 100.608 74.773 100.01 74.773C99.3951 74.773 98.9055 74.9723 98.5415 75.371C98.1775 75.761 97.9955 76.3287 97.9955 77.074V81H96.8255V76.97C96.8255 76.2593 96.6478 75.7177 96.2925 75.345C95.9458 74.9637 95.4735 74.773 94.8755 74.773C94.2601 74.773 93.7705 74.9723 93.4065 75.371C93.0425 75.761 92.8605 76.3287 92.8605 77.074V81H91.6775V73.876H92.8605V74.903C93.0945 74.5303 93.4065 74.2443 93.7965 74.045C94.1951 73.8457 94.6328 73.746 95.1095 73.746C95.7075 73.746 96.2361 73.8803 96.6955 74.149C97.1548 74.4177 97.4971 74.812 97.7225 75.332C97.9218 74.8293 98.2511 74.4393 98.7105 74.162C99.1698 73.8847 99.6811 73.746 100.244 73.746ZM104.889 77.412C104.889 76.684 105.036 76.047 105.331 75.501C105.626 74.9463 106.029 74.5173 106.54 74.214C107.06 73.9107 107.636 73.759 108.269 73.759C108.893 73.759 109.435 73.8933 109.894 74.162C110.353 74.4307 110.696 74.7687 110.921 75.176V73.876H112.117V81H110.921V79.674C110.687 80.09 110.336 80.4367 109.868 80.714C109.409 80.9827 108.871 81.117 108.256 81.117C107.623 81.117 107.051 80.961 106.54 80.649C106.029 80.337 105.626 79.8993 105.331 79.336C105.036 78.7727 104.889 78.1313 104.889 77.412ZM110.921 77.425C110.921 76.8877 110.813 76.4197 110.596 76.021C110.379 75.6223 110.085 75.319 109.712 75.111C109.348 74.8943 108.945 74.786 108.503 74.786C108.061 74.786 107.658 74.89 107.294 75.098C106.93 75.306 106.64 75.6093 106.423 76.008C106.206 76.4067 106.098 76.8747 106.098 77.412C106.098 77.958 106.206 78.4347 106.423 78.842C106.64 79.2407 106.93 79.5483 107.294 79.765C107.658 79.973 108.061 80.077 108.503 80.077C108.945 80.077 109.348 79.973 109.712 79.765C110.085 79.5483 110.379 79.2407 110.596 78.842C110.813 78.4347 110.921 77.9623 110.921 77.425ZM115.819 74.851V79.05C115.819 79.3967 115.893 79.6437 116.04 79.791C116.188 79.9297 116.443 79.999 116.807 79.999H117.678V81H116.612C115.954 81 115.46 80.8483 115.13 80.545C114.801 80.2417 114.636 79.7433 114.636 79.05V74.851H113.713V73.876H114.636V72.082H115.819V73.876H117.678V74.851H115.819ZM125.97 81.091C125.372 81.091 124.835 80.987 124.358 80.779C123.89 80.5623 123.522 80.2677 123.253 79.895C122.985 79.5137 122.846 79.076 122.837 78.582H124.098C124.142 79.0067 124.315 79.3663 124.618 79.661C124.93 79.947 125.381 80.09 125.97 80.09C126.534 80.09 126.976 79.9513 127.296 79.674C127.626 79.388 127.79 79.024 127.79 78.582C127.79 78.2353 127.695 77.9537 127.504 77.737C127.314 77.5203 127.075 77.3557 126.789 77.243C126.503 77.1303 126.118 77.009 125.632 76.879C125.034 76.723 124.553 76.567 124.189 76.411C123.834 76.255 123.526 76.0123 123.266 75.683C123.015 75.345 122.889 74.8943 122.889 74.331C122.889 73.837 123.015 73.3993 123.266 73.018C123.518 72.6367 123.869 72.342 124.319 72.134C124.779 71.926 125.303 71.822 125.892 71.822C126.742 71.822 127.435 72.0343 127.972 72.459C128.518 72.8837 128.826 73.447 128.895 74.149H127.595C127.552 73.8023 127.37 73.499 127.049 73.239C126.729 72.9703 126.304 72.836 125.775 72.836C125.281 72.836 124.878 72.966 124.566 73.226C124.254 73.4773 124.098 73.8327 124.098 74.292C124.098 74.6213 124.189 74.89 124.371 75.098C124.562 75.306 124.792 75.4663 125.06 75.579C125.338 75.683 125.723 75.8043 126.217 75.943C126.815 76.1077 127.296 76.2723 127.66 76.437C128.024 76.593 128.336 76.84 128.596 77.178C128.856 77.5073 128.986 77.958 128.986 78.53C128.986 78.972 128.869 79.388 128.635 79.778C128.401 80.168 128.055 80.4843 127.595 80.727C127.136 80.9697 126.594 81.091 125.97 81.091ZM131.598 72.719C131.373 72.719 131.182 72.641 131.026 72.485C130.87 72.329 130.792 72.1383 130.792 71.913C130.792 71.6877 130.87 71.497 131.026 71.341C131.182 71.185 131.373 71.107 131.598 71.107C131.815 71.107 131.997 71.185 132.144 71.341C132.3 71.497 132.378 71.6877 132.378 71.913C132.378 72.1383 132.3 72.329 132.144 72.485C131.997 72.641 131.815 72.719 131.598 72.719ZM132.17 73.876V81H130.987V73.876H132.17ZM136.968 81.117C136.422 81.117 135.933 81.026 135.499 80.844C135.066 80.6533 134.724 80.3933 134.472 80.064C134.221 79.726 134.082 79.3403 134.056 78.907H135.278C135.313 79.2623 135.478 79.5527 135.772 79.778C136.076 80.0033 136.47 80.116 136.955 80.116C137.406 80.116 137.761 80.0163 138.021 79.817C138.281 79.6177 138.411 79.3663 138.411 79.063C138.411 78.751 138.273 78.5213 137.995 78.374C137.718 78.218 137.289 78.0663 136.708 77.919C136.18 77.7803 135.746 77.6417 135.408 77.503C135.079 77.3557 134.793 77.1433 134.55 76.866C134.316 76.58 134.199 76.2073 134.199 75.748C134.199 75.384 134.308 75.0503 134.524 74.747C134.741 74.4437 135.049 74.2053 135.447 74.032C135.846 73.85 136.301 73.759 136.812 73.759C137.601 73.759 138.238 73.9583 138.723 74.357C139.209 74.7557 139.469 75.3017 139.503 75.995H138.32C138.294 75.6223 138.143 75.3233 137.865 75.098C137.597 74.8727 137.233 74.76 136.773 74.76C136.349 74.76 136.011 74.851 135.759 75.033C135.508 75.215 135.382 75.4533 135.382 75.748C135.382 75.982 135.456 76.177 135.603 76.333C135.759 76.4803 135.95 76.6017 136.175 76.697C136.409 76.7837 136.73 76.8833 137.137 76.996C137.649 77.1347 138.065 77.2733 138.385 77.412C138.706 77.542 138.979 77.7413 139.204 78.01C139.438 78.2787 139.56 78.6297 139.568 79.063C139.568 79.453 139.46 79.804 139.243 80.116C139.027 80.428 138.719 80.675 138.32 80.857C137.93 81.0303 137.48 81.117 136.968 81.117ZM142.941 74.851V79.05C142.941 79.3967 143.015 79.6437 143.162 79.791C143.31 79.9297 143.565 79.999 143.929 79.999H144.8V81H143.734C143.076 81 142.582 80.8483 142.252 80.545C141.923 80.2417 141.758 79.7433 141.758 79.05V74.851H140.835V73.876H141.758V72.082H142.941V73.876H144.8V74.851H142.941ZM152.994 77.165C152.994 77.3903 152.981 77.6287 152.955 77.88H147.261C147.304 78.582 147.542 79.1323 147.976 79.531C148.418 79.921 148.951 80.116 149.575 80.116C150.086 80.116 150.511 79.999 150.849 79.765C151.195 79.5223 151.438 79.2017 151.577 78.803H152.851C152.66 79.4877 152.279 80.0467 151.707 80.48C151.135 80.9047 150.424 81.117 149.575 81.117C148.899 81.117 148.292 80.9653 147.755 80.662C147.226 80.3587 146.81 79.9297 146.507 79.375C146.203 78.8117 146.052 78.1617 146.052 77.425C146.052 76.6883 146.199 76.0427 146.494 75.488C146.788 74.9333 147.2 74.5087 147.729 74.214C148.266 73.9107 148.881 73.759 149.575 73.759C150.251 73.759 150.849 73.9063 151.369 74.201C151.889 74.4957 152.287 74.903 152.565 75.423C152.851 75.9343 152.994 76.515 152.994 77.165ZM151.772 76.918C151.772 76.4673 151.672 76.0817 151.473 75.761C151.273 75.4317 151 75.1847 150.654 75.02C150.316 74.8467 149.939 74.76 149.523 74.76C148.925 74.76 148.413 74.9507 147.989 75.332C147.573 75.7133 147.334 76.242 147.274 76.918H151.772ZM163.382 73.746C163.937 73.746 164.431 73.863 164.864 74.097C165.298 74.3223 165.64 74.6647 165.891 75.124C166.143 75.5833 166.268 76.1423 166.268 76.801V81H165.098V76.97C165.098 76.2593 164.921 75.7177 164.565 75.345C164.219 74.9637 163.746 74.773 163.148 74.773C162.533 74.773 162.043 74.9723 161.679 75.371C161.315 75.761 161.133 76.3287 161.133 77.074V81H159.963V76.97C159.963 76.2593 159.786 75.7177 159.43 75.345C159.084 74.9637 158.611 74.773 158.013 74.773C157.398 74.773 156.908 74.9723 156.544 75.371C156.18 75.761 155.998 76.3287 155.998 77.074V81H154.815V73.876H155.998V74.903C156.232 74.5303 156.544 74.2443 156.934 74.045C157.333 73.8457 157.771 73.746 158.247 73.746C158.845 73.746 159.374 73.8803 159.833 74.149C160.293 74.4177 160.635 74.812 160.86 75.332C161.06 74.8293 161.389 74.4393 161.848 74.162C162.308 73.8847 162.819 73.746 163.382 73.746ZM173.378 71.939V81H172.195V71.939H173.378ZM179.125 73.746C179.992 73.746 180.694 74.0103 181.231 74.539C181.768 75.059 182.037 75.813 182.037 76.801V81H180.867V76.97C180.867 76.2593 180.689 75.7177 180.334 75.345C179.979 74.9637 179.493 74.773 178.878 74.773C178.254 74.773 177.756 74.968 177.383 75.358C177.019 75.748 176.837 76.3157 176.837 77.061V81H175.654V73.876H176.837V74.89C177.071 74.526 177.387 74.2443 177.786 74.045C178.193 73.8457 178.64 73.746 179.125 73.746ZM187.128 74.851H185.633V81H184.45V74.851H183.527V73.876H184.45V73.369C184.45 72.5717 184.654 71.991 185.061 71.627C185.477 71.2543 186.14 71.068 187.05 71.068V72.056C186.53 72.056 186.162 72.16 185.945 72.368C185.737 72.5673 185.633 72.901 185.633 73.369V73.876H187.128V74.851ZM191.875 81.117C191.207 81.117 190.601 80.9653 190.055 80.662C189.517 80.3587 189.093 79.9297 188.781 79.375C188.477 78.8117 188.326 78.1617 188.326 77.425C188.326 76.697 188.482 76.0557 188.794 75.501C189.114 74.9377 189.548 74.5087 190.094 74.214C190.64 73.9107 191.251 73.759 191.927 73.759C192.603 73.759 193.214 73.9107 193.76 74.214C194.306 74.5087 194.735 74.9333 195.047 75.488C195.367 76.0427 195.528 76.6883 195.528 77.425C195.528 78.1617 195.363 78.8117 195.034 79.375C194.713 79.9297 194.275 80.3587 193.721 80.662C193.166 80.9653 192.551 81.117 191.875 81.117ZM191.875 80.077C192.299 80.077 192.698 79.9773 193.071 79.778C193.443 79.5787 193.742 79.2797 193.968 78.881C194.202 78.4823 194.319 77.997 194.319 77.425C194.319 76.853 194.206 76.3677 193.981 75.969C193.755 75.5703 193.461 75.2757 193.097 75.085C192.733 74.8857 192.338 74.786 191.914 74.786C191.48 74.786 191.082 74.8857 190.718 75.085C190.362 75.2757 190.076 75.5703 189.86 75.969C189.643 76.3677 189.535 76.853 189.535 77.425C189.535 78.0057 189.639 78.4953 189.847 78.894C190.063 79.2927 190.349 79.5917 190.705 79.791C191.06 79.9817 191.45 80.077 191.875 80.077ZM198.526 75.033C198.734 74.6257 199.029 74.3093 199.41 74.084C199.8 73.8587 200.272 73.746 200.827 73.746V74.968H200.515C199.189 74.968 198.526 75.6873 198.526 77.126V81H197.343V73.876H198.526V75.033ZM211.02 73.746C211.574 73.746 212.068 73.863 212.502 74.097C212.935 74.3223 213.277 74.6647 213.529 75.124C213.78 75.5833 213.906 76.1423 213.906 76.801V81H212.736V76.97C212.736 76.2593 212.558 75.7177 212.203 75.345C211.856 74.9637 211.384 74.773 210.786 74.773C210.17 74.773 209.681 74.9723 209.317 75.371C208.953 75.761 208.771 76.3287 208.771 77.074V81H207.601V76.97C207.601 76.2593 207.423 75.7177 207.068 75.345C206.721 74.9637 206.249 74.773 205.651 74.773C205.035 74.773 204.546 74.9723 204.182 75.371C203.818 75.761 203.636 76.3287 203.636 77.074V81H202.453V73.876H203.636V74.903C203.87 74.5303 204.182 74.2443 204.572 74.045C204.97 73.8457 205.408 73.746 205.885 73.746C206.483 73.746 207.011 73.8803 207.471 74.149C207.93 74.4177 208.272 74.812 208.498 75.332C208.697 74.8293 209.026 74.4393 209.486 74.162C209.945 73.8847 210.456 73.746 211.02 73.746ZM215.664 77.412C215.664 76.684 215.812 76.047 216.106 75.501C216.401 74.9463 216.804 74.5173 217.315 74.214C217.835 73.9107 218.412 73.759 219.044 73.759C219.668 73.759 220.21 73.8933 220.669 74.162C221.129 74.4307 221.471 74.7687 221.696 75.176V73.876H222.892V81H221.696V79.674C221.462 80.09 221.111 80.4367 220.643 80.714C220.184 80.9827 219.647 81.117 219.031 81.117C218.399 81.117 217.827 80.961 217.315 80.649C216.804 80.337 216.401 79.8993 216.106 79.336C215.812 78.7727 215.664 78.1313 215.664 77.412ZM221.696 77.425C221.696 76.8877 221.588 76.4197 221.371 76.021C221.155 75.6223 220.86 75.319 220.487 75.111C220.123 74.8943 219.72 74.786 219.278 74.786C218.836 74.786 218.433 74.89 218.069 75.098C217.705 75.306 217.415 75.6093 217.198 76.008C216.982 76.4067 216.873 76.8747 216.873 77.412C216.873 77.958 216.982 78.4347 217.198 78.842C217.415 79.2407 217.705 79.5483 218.069 79.765C218.433 79.973 218.836 80.077 219.278 80.077C219.72 80.077 220.123 79.973 220.487 79.765C220.86 79.5483 221.155 79.2407 221.371 78.842C221.588 78.4347 221.696 77.9623 221.696 77.425ZM227.673 81.117C227.127 81.117 226.638 81.026 226.204 80.844C225.771 80.6533 225.429 80.3933 225.177 80.064C224.926 79.726 224.787 79.3403 224.761 78.907H225.983C226.018 79.2623 226.183 79.5527 226.477 79.778C226.781 80.0033 227.175 80.116 227.66 80.116C228.111 80.116 228.466 80.0163 228.726 79.817C228.986 79.6177 229.116 79.3663 229.116 79.063C229.116 78.751 228.978 78.5213 228.7 78.374C228.423 78.218 227.994 78.0663 227.413 77.919C226.885 77.7803 226.451 77.6417 226.113 77.503C225.784 77.3557 225.498 77.1433 225.255 76.866C225.021 76.58 224.904 76.2073 224.904 75.748C224.904 75.384 225.013 75.0503 225.229 74.747C225.446 74.4437 225.754 74.2053 226.152 74.032C226.551 73.85 227.006 73.759 227.517 73.759C228.306 73.759 228.943 73.9583 229.428 74.357C229.914 74.7557 230.174 75.3017 230.208 75.995H229.025C228.999 75.6223 228.848 75.3233 228.57 75.098C228.302 74.8727 227.938 74.76 227.478 74.76C227.054 74.76 226.716 74.851 226.464 75.033C226.213 75.215 226.087 75.4533 226.087 75.748C226.087 75.982 226.161 76.177 226.308 76.333C226.464 76.4803 226.655 76.6017 226.88 76.697C227.114 76.7837 227.435 76.8833 227.842 76.996C228.354 77.1347 228.77 77.2733 229.09 77.412C229.411 77.542 229.684 77.7413 229.909 78.01C230.143 78.2787 230.265 78.6297 230.273 79.063C230.273 79.453 230.165 79.804 229.948 80.116C229.732 80.428 229.424 80.675 229.025 80.857C228.635 81.0303 228.185 81.117 227.673 81.117ZM232.814 72.719C232.589 72.719 232.398 72.641 232.242 72.485C232.086 72.329 232.008 72.1383 232.008 71.913C232.008 71.6877 232.086 71.497 232.242 71.341C232.398 71.185 232.589 71.107 232.814 71.107C233.031 71.107 233.213 71.185 233.36 71.341C233.516 71.497 233.594 71.6877 233.594 71.913C233.594 72.1383 233.516 72.329 233.36 72.485C233.213 72.641 233.031 72.719 232.814 72.719ZM233.386 73.876V81H232.203V73.876H233.386ZM47.4919 85.939V91.672C47.4919 92.478 47.6869 93.076 48.0769 93.466C48.4756 93.856 49.0259 94.051 49.7279 94.051C50.4212 94.051 50.9629 93.856 51.3529 93.466C51.7516 93.076 51.9509 92.478 51.9509 91.672V85.939H53.1339V91.659C53.1339 92.413 52.9822 93.05 52.6789 93.57C52.3756 94.0813 51.9639 94.4627 51.4439 94.714C50.9326 94.9653 50.3562 95.091 49.7149 95.091C49.0736 95.091 48.4929 94.9653 47.9729 94.714C47.4616 94.4627 47.0542 94.0813 46.7509 93.57C46.4562 93.05 46.3089 92.413 46.3089 91.659V85.939H47.4919ZM56.5503 85.939V95H55.3673V85.939H56.5503ZM65.9506 95H64.7676L60.0096 87.785V95H58.8266V85.926H60.0096L64.7676 93.128V85.926H65.9506V95ZM74.826 95.091C74.228 95.091 73.6907 94.987 73.214 94.779C72.746 94.5623 72.3777 94.2677 72.109 93.895C71.8403 93.5137 71.7017 93.076 71.693 92.582H72.954C72.9973 93.0067 73.1707 93.3663 73.474 93.661C73.786 93.947 74.2367 94.09 74.826 94.09C75.3893 94.09 75.8313 93.9513 76.152 93.674C76.4813 93.388 76.646 93.024 76.646 92.582C76.646 92.2353 76.5507 91.9537 76.36 91.737C76.1693 91.5203 75.931 91.3557 75.645 91.243C75.359 91.1303 74.9733 91.009 74.488 90.879C73.89 90.723 73.409 90.567 73.045 90.411C72.6897 90.255 72.382 90.0123 72.122 89.683C71.8707 89.345 71.745 88.8943 71.745 88.331C71.745 87.837 71.8707 87.3993 72.122 87.018C72.3733 86.6367 72.7243 86.342 73.175 86.134C73.6343 85.926 74.1587 85.822 74.748 85.822C75.5973 85.822 76.2907 86.0343 76.828 86.459C77.374 86.8837 77.6817 87.447 77.751 88.149H76.451C76.4077 87.8023 76.2257 87.499 75.905 87.239C75.5843 86.9703 75.1597 86.836 74.631 86.836C74.137 86.836 73.734 86.966 73.422 87.226C73.11 87.4773 72.954 87.8327 72.954 88.292C72.954 88.6213 73.045 88.89 73.227 89.098C73.4177 89.306 73.6473 89.4663 73.916 89.579C74.1933 89.683 74.579 89.8043 75.073 89.943C75.671 90.1077 76.152 90.2723 76.516 90.437C76.88 90.593 77.192 90.84 77.452 91.178C77.712 91.5073 77.842 91.958 77.842 92.53C77.842 92.972 77.725 93.388 77.491 93.778C77.257 94.168 76.9103 94.4843 76.451 94.727C75.9917 94.9697 75.45 95.091 74.826 95.091ZM85.9789 87.876L81.6889 98.354H80.4669L81.8709 94.922L78.9979 87.876H80.3109L82.5469 93.648L84.7569 87.876H85.9789ZM86.9861 91.412C86.9861 90.684 87.1334 90.047 87.4281 89.501C87.7228 88.9463 88.1258 88.5173 88.6371 88.214C89.1571 87.9107 89.7334 87.759 90.3661 87.759C90.9901 87.759 91.5318 87.8933 91.9911 88.162C92.4504 88.4307 92.7928 88.7687 93.0181 89.176V87.876H94.2141V95H93.0181V93.674C92.7841 94.09 92.4331 94.4367 91.9651 94.714C91.5058 94.9827 90.9684 95.117 90.3531 95.117C89.7204 95.117 89.1484 94.961 88.6371 94.649C88.1258 94.337 87.7228 93.8993 87.4281 93.336C87.1334 92.7727 86.9861 92.1313 86.9861 91.412ZM93.0181 91.425C93.0181 90.8877 92.9098 90.4197 92.6931 90.021C92.4764 89.6223 92.1818 89.319 91.8091 89.111C91.4451 88.8943 91.0421 88.786 90.6001 88.786C90.1581 88.786 89.7551 88.89 89.3911 89.098C89.0271 89.306 88.7368 89.6093 88.5201 90.008C88.3034 90.4067 88.1951 90.8747 88.1951 91.412C88.1951 91.958 88.3034 92.4347 88.5201 92.842C88.7368 93.2407 89.0271 93.5483 89.3911 93.765C89.7551 93.973 90.1581 94.077 90.6001 94.077C91.0421 94.077 91.4451 93.973 91.8091 93.765C92.1818 93.5483 92.4764 93.2407 92.6931 92.842C92.9098 92.4347 93.0181 91.9623 93.0181 91.425ZM97.6562 89.033C97.8642 88.6257 98.1589 88.3093 98.5402 88.084C98.9302 87.8587 99.4026 87.746 99.9572 87.746V88.968H99.6452C98.3192 88.968 97.6562 89.6873 97.6562 91.126V95H96.4732V87.876H97.6562V89.033ZM102.194 86.719C101.969 86.719 101.778 86.641 101.622 86.485C101.466 86.329 101.388 86.1383 101.388 85.913C101.388 85.6877 101.466 85.497 101.622 85.341C101.778 85.185 101.969 85.107 102.194 85.107C102.411 85.107 102.593 85.185 102.74 85.341C102.896 85.497 102.974 85.6877 102.974 85.913C102.974 86.1383 102.896 86.329 102.74 86.485C102.593 86.641 102.411 86.719 102.194 86.719ZM102.766 87.876V95H101.583V87.876H102.766ZM107.941 88.851H106.446V95H105.263V88.851H104.34V87.876H105.263V87.369C105.263 86.5717 105.467 85.991 105.874 85.627C106.29 85.2543 106.953 85.068 107.863 85.068V86.056C107.343 86.056 106.975 86.16 106.758 86.368C106.55 86.5673 106.446 86.901 106.446 87.369V87.876H107.941V88.851ZM120.287 85.939V95H119.104V90.892H114.489V95H113.306V85.939H114.489V89.917H119.104V85.939H120.287ZM123.178 86.719C122.953 86.719 122.762 86.641 122.606 86.485C122.45 86.329 122.372 86.1383 122.372 85.913C122.372 85.6877 122.45 85.497 122.606 85.341C122.762 85.185 122.953 85.107 123.178 85.107C123.395 85.107 123.577 85.185 123.724 85.341C123.88 85.497 123.958 85.6877 123.958 85.913C123.958 86.1383 123.88 86.329 123.724 86.485C123.577 86.641 123.395 86.719 123.178 86.719ZM123.75 87.876V95H122.567V87.876H123.75ZM125.584 91.412C125.584 90.684 125.732 90.047 126.026 89.501C126.321 88.9463 126.724 88.5173 127.235 88.214C127.755 87.9107 128.336 87.759 128.977 87.759C129.532 87.759 130.048 87.889 130.524 88.149C131.001 88.4003 131.365 88.734 131.616 89.15V85.38H132.812V95H131.616V93.661C131.382 94.0857 131.036 94.4367 130.576 94.714C130.117 94.9827 129.58 95.117 128.964 95.117C128.332 95.117 127.755 94.961 127.235 94.649C126.724 94.337 126.321 93.8993 126.026 93.336C125.732 92.7727 125.584 92.1313 125.584 91.412ZM131.616 91.425C131.616 90.8877 131.508 90.4197 131.291 90.021C131.075 89.6223 130.78 89.319 130.407 89.111C130.043 88.8943 129.64 88.786 129.198 88.786C128.756 88.786 128.353 88.89 127.989 89.098C127.625 89.306 127.335 89.6093 127.118 90.008C126.902 90.4067 126.793 90.8747 126.793 91.412C126.793 91.958 126.902 92.4347 127.118 92.842C127.335 93.2407 127.625 93.5483 127.989 93.765C128.353 93.973 128.756 94.077 129.198 94.077C129.64 94.077 130.043 93.973 130.407 93.765C130.78 93.5483 131.075 93.2407 131.291 92.842C131.508 92.4347 131.616 91.9623 131.616 91.425ZM134.63 91.412C134.63 90.684 134.777 90.047 135.072 89.501C135.366 88.9463 135.769 88.5173 136.281 88.214C136.801 87.9107 137.377 87.759 138.01 87.759C138.634 87.759 139.175 87.8933 139.635 88.162C140.094 88.4307 140.436 88.7687 140.662 89.176V87.876H141.858V95H140.662V93.674C140.428 94.09 140.077 94.4367 139.609 94.714C139.149 94.9827 138.612 95.117 137.997 95.117C137.364 95.117 136.792 94.961 136.281 94.649C135.769 94.337 135.366 93.8993 135.072 93.336C134.777 92.7727 134.63 92.1313 134.63 91.412ZM140.662 91.425C140.662 90.8877 140.553 90.4197 140.337 90.021C140.12 89.6223 139.825 89.319 139.453 89.111C139.089 88.8943 138.686 88.786 138.244 88.786C137.802 88.786 137.399 88.89 137.035 89.098C136.671 89.306 136.38 89.6093 136.164 90.008C135.947 90.4067 135.839 90.8747 135.839 91.412C135.839 91.958 135.947 92.4347 136.164 92.842C136.38 93.2407 136.671 93.5483 137.035 93.765C137.399 93.973 137.802 94.077 138.244 94.077C138.686 94.077 139.089 93.973 139.453 93.765C139.825 93.5483 140.12 93.2407 140.337 92.842C140.553 92.4347 140.662 91.9623 140.662 91.425ZM150.253 87.876L145.963 98.354H144.741L146.145 94.922L143.272 87.876H144.585L146.821 93.648L149.031 87.876H150.253ZM151.26 91.412C151.26 90.684 151.407 90.047 151.702 89.501C151.997 88.9463 152.4 88.5173 152.911 88.214C153.431 87.9107 154.007 87.759 154.64 87.759C155.264 87.759 155.806 87.8933 156.265 88.162C156.724 88.4307 157.067 88.7687 157.292 89.176V87.876H158.488V95H157.292V93.674C157.058 94.09 156.707 94.4367 156.239 94.714C155.78 94.9827 155.242 95.117 154.627 95.117C153.994 95.117 153.422 94.961 152.911 94.649C152.4 94.337 151.997 93.8993 151.702 93.336C151.407 92.7727 151.26 92.1313 151.26 91.412ZM157.292 91.425C157.292 90.8877 157.184 90.4197 156.967 90.021C156.75 89.6223 156.456 89.319 156.083 89.111C155.719 88.8943 155.316 88.786 154.874 88.786C154.432 88.786 154.029 88.89 153.665 89.098C153.301 89.306 153.011 89.6093 152.794 90.008C152.577 90.4067 152.469 90.8747 152.469 91.412C152.469 91.958 152.577 92.4347 152.794 92.842C153.011 93.2407 153.301 93.5483 153.665 93.765C154.029 93.973 154.432 94.077 154.874 94.077C155.316 94.077 155.719 93.973 156.083 93.765C156.456 93.5483 156.75 93.2407 156.967 92.842C157.184 92.4347 157.292 91.9623 157.292 91.425ZM162.19 88.851V93.05C162.19 93.3967 162.264 93.6437 162.411 93.791C162.558 93.9297 162.814 93.999 163.178 93.999H164.049V95H162.983C162.324 95 161.83 94.8483 161.501 94.545C161.172 94.2417 161.007 93.7433 161.007 93.05V88.851H160.084V87.876H161.007V86.082H162.19V87.876H164.049V88.851H162.19ZM172.06 87.876V95H170.877V93.947C170.652 94.311 170.336 94.597 169.928 94.805C169.53 95.0043 169.088 95.104 168.602 95.104C168.048 95.104 167.549 94.9913 167.107 94.766C166.665 94.532 166.314 94.1853 166.054 93.726C165.803 93.2667 165.677 92.7077 165.677 92.049V87.876H166.847V91.893C166.847 92.595 167.025 93.1367 167.38 93.518C167.736 93.8907 168.221 94.077 168.836 94.077C169.469 94.077 169.967 93.882 170.331 93.492C170.695 93.102 170.877 92.5343 170.877 91.789V87.876H172.06ZM175.501 85.38V95H174.318V85.38H175.501ZM178.96 85.38V95H177.777V85.38H178.96ZM180.794 91.412C180.794 90.684 180.942 90.047 181.236 89.501C181.531 88.9463 181.934 88.5173 182.445 88.214C182.965 87.9107 183.542 87.759 184.174 87.759C184.798 87.759 185.34 87.8933 185.799 88.162C186.259 88.4307 186.601 88.7687 186.826 89.176V87.876H188.022V95H186.826V93.674C186.592 94.09 186.241 94.4367 185.773 94.714C185.314 94.9827 184.777 95.117 184.161 95.117C183.529 95.117 182.957 94.961 182.445 94.649C181.934 94.337 181.531 93.8993 181.236 93.336C180.942 92.7727 180.794 92.1313 180.794 91.412ZM186.826 91.425C186.826 90.8877 186.718 90.4197 186.501 90.021C186.285 89.6223 185.99 89.319 185.617 89.111C185.253 88.8943 184.85 88.786 184.408 88.786C183.966 88.786 183.563 88.89 183.199 89.098C182.835 89.306 182.545 89.6093 182.328 90.008C182.112 90.4067 182.003 90.8747 182.003 91.412C182.003 91.958 182.112 92.4347 182.328 92.842C182.545 93.2407 182.835 93.5483 183.199 93.765C183.563 93.973 183.966 94.077 184.408 94.077C184.85 94.077 185.253 93.973 185.617 93.765C185.99 93.5483 186.285 93.2407 186.501 92.842C186.718 92.4347 186.826 91.9623 186.826 91.425ZM193.817 87.746C194.355 87.746 194.84 87.863 195.273 88.097C195.707 88.3223 196.045 88.6647 196.287 89.124C196.539 89.5833 196.664 90.1423 196.664 90.801V95H195.494V90.97C195.494 90.2593 195.317 89.7177 194.961 89.345C194.606 88.9637 194.121 88.773 193.505 88.773C192.881 88.773 192.383 88.968 192.01 89.358C191.646 89.748 191.464 90.3157 191.464 91.061V95H190.281V85.38H191.464V88.89C191.698 88.526 192.019 88.2443 192.426 88.045C192.842 87.8457 193.306 87.746 193.817 87.746ZM207.146 85.939V92.634C207.146 93.3793 206.916 93.9773 206.457 94.428C205.997 94.87 205.391 95.091 204.637 95.091C203.874 95.091 203.263 94.8657 202.804 94.415C202.344 93.9557 202.115 93.3317 202.115 92.543H203.298C203.306 92.985 203.419 93.3447 203.636 93.622C203.861 93.8993 204.195 94.038 204.637 94.038C205.079 94.038 205.408 93.908 205.625 93.648C205.841 93.3793 205.95 93.0413 205.95 92.634V85.939H207.146ZM209.294 91.412C209.294 90.684 209.442 90.047 209.736 89.501C210.031 88.9463 210.434 88.5173 210.945 88.214C211.465 87.9107 212.042 87.759 212.674 87.759C213.298 87.759 213.84 87.8933 214.299 88.162C214.759 88.4307 215.101 88.7687 215.326 89.176V87.876H216.522V95H215.326V93.674C215.092 94.09 214.741 94.4367 214.273 94.714C213.814 94.9827 213.277 95.117 212.661 95.117C212.029 95.117 211.457 94.961 210.945 94.649C210.434 94.337 210.031 93.8993 209.736 93.336C209.442 92.7727 209.294 92.1313 209.294 91.412ZM215.326 91.425C215.326 90.8877 215.218 90.4197 215.001 90.021C214.785 89.6223 214.49 89.319 214.117 89.111C213.753 88.8943 213.35 88.786 212.908 88.786C212.466 88.786 212.063 88.89 211.699 89.098C211.335 89.306 211.045 89.6093 210.828 90.008C210.612 90.4067 210.503 90.8747 210.503 91.412C210.503 91.958 210.612 92.4347 210.828 92.842C211.045 93.2407 211.335 93.5483 211.699 93.765C212.063 93.973 212.466 94.077 212.908 94.077C213.35 94.077 213.753 93.973 214.117 93.765C214.49 93.5483 214.785 93.2407 215.001 92.842C215.218 92.4347 215.326 91.9623 215.326 91.425ZM222.759 95L219.964 91.854V95H218.781V85.38H219.964V91.035L222.707 87.876H224.358L221.004 91.425L224.371 95H222.759ZM225.29 91.412C225.29 90.684 225.437 90.047 225.732 89.501C226.027 88.9463 226.43 88.5173 226.941 88.214C227.461 87.9107 228.037 87.759 228.67 87.759C229.294 87.759 229.836 87.8933 230.295 88.162C230.754 88.4307 231.097 88.7687 231.322 89.176V87.876H232.518V95H231.322V93.674C231.088 94.09 230.737 94.4367 230.269 94.714C229.81 94.9827 229.272 95.117 228.657 95.117C228.024 95.117 227.452 94.961 226.941 94.649C226.43 94.337 226.027 93.8993 225.732 93.336C225.437 92.7727 225.29 92.1313 225.29 91.412ZM231.322 91.425C231.322 90.8877 231.214 90.4197 230.997 90.021C230.78 89.6223 230.486 89.319 230.113 89.111C229.749 88.8943 229.346 88.786 228.904 88.786C228.462 88.786 228.059 88.89 227.695 89.098C227.331 89.306 227.041 89.6093 226.824 90.008C226.607 90.4067 226.499 90.8747 226.499 91.412C226.499 91.958 226.607 92.4347 226.824 92.842C227.041 93.2407 227.331 93.5483 227.695 93.765C228.059 93.973 228.462 94.077 228.904 94.077C229.346 94.077 229.749 93.973 230.113 93.765C230.486 93.5483 230.78 93.2407 230.997 92.842C231.214 92.4347 231.322 91.9623 231.322 91.425ZM235.96 89.033C236.168 88.6257 236.463 88.3093 236.844 88.084C237.234 87.8587 237.706 87.746 238.261 87.746V88.968H237.949C236.623 88.968 235.96 89.6873 235.96 91.126V95H234.777V87.876H235.96V89.033ZM241.33 88.851V93.05C241.33 93.3967 241.403 93.6437 241.551 93.791C241.698 93.9297 241.954 93.999 242.318 93.999H243.189V95H242.123C241.464 95 240.97 94.8483 240.641 94.545C240.311 94.2417 240.147 93.7433 240.147 93.05V88.851H239.224V87.876H240.147V86.082H241.33V87.876H243.189V88.851H241.33ZM244.44 91.412C244.44 90.684 244.587 90.047 244.882 89.501C245.177 88.9463 245.58 88.5173 246.091 88.214C246.611 87.9107 247.187 87.759 247.82 87.759C248.444 87.759 248.986 87.8933 249.445 88.162C249.904 88.4307 250.247 88.7687 250.472 89.176V87.876H251.668V95H250.472V93.674C250.238 94.09 249.887 94.4367 249.419 94.714C248.96 94.9827 248.422 95.117 247.807 95.117C247.174 95.117 246.602 94.961 246.091 94.649C245.58 94.337 245.177 93.8993 244.882 93.336C244.587 92.7727 244.44 92.1313 244.44 91.412ZM250.472 91.425C250.472 90.8877 250.364 90.4197 250.147 90.021C249.93 89.6223 249.636 89.319 249.263 89.111C248.899 88.8943 248.496 88.786 248.054 88.786C247.612 88.786 247.209 88.89 246.845 89.098C246.481 89.306 246.191 89.6093 245.974 90.008C245.757 90.4067 245.649 90.8747 245.649 91.412C245.649 91.958 245.757 92.4347 245.974 92.842C246.191 93.2407 246.481 93.5483 246.845 93.765C247.209 93.973 247.612 94.077 248.054 94.077C248.496 94.077 248.899 93.973 249.263 93.765C249.636 93.5483 249.93 93.2407 250.147 92.842C250.364 92.4347 250.472 91.9623 250.472 91.425Z" fill="#818181"/>
</svg>
