<svg width="762" height="190" viewBox="0 0 762 190" fill="none" xmlns="http://www.w3.org/2000/svg">
<path d="M18.6526 137C15.8893 137 13.6573 136.362 11.9568 135.087C10.3626 133.812 9.56544 132.27 9.56544 130.464V26.9974C9.56544 25.1906 10.3626 23.6495 11.9568 22.3741C13.6573 21.0987 15.8893 20.461 18.6526 20.461H46.8707C53.9916 20.461 60.3686 21.6833 66.0016 24.1278C71.6345 26.466 76.0984 30.3453 79.3932 35.7657C82.7942 41.0799 84.4948 48.2008 84.4948 57.1285V100.332C84.4948 109.26 82.7942 116.434 79.3932 121.855C76.0984 127.169 71.6345 131.048 66.0016 133.493C60.3686 135.831 53.9916 137 46.8707 137H18.6526ZM30.2906 118.826H46.8707C52.1848 118.826 56.3298 117.338 59.3058 114.362C62.2817 111.28 63.7696 106.603 63.7696 100.332V57.1285C63.7696 50.8579 62.2817 46.2346 59.3058 43.2587C56.3298 40.1765 52.238 38.6353 47.0301 38.6353H30.2906V118.826ZM112.562 137C110.011 137 107.62 136.469 105.388 135.406C103.262 134.237 102.2 132.536 102.2 130.304V26.9974C102.2 24.6592 103.262 23.0118 105.388 22.0553C107.62 20.9924 110.011 20.461 112.562 20.461C115.219 20.461 117.611 20.9924 119.736 22.0553C121.862 23.0118 122.925 24.6592 122.925 26.9974V130.304C122.925 132.536 121.862 134.237 119.736 135.406C117.611 136.469 115.219 137 112.562 137ZM178.401 137.957C171.386 137.957 165.062 136.787 159.429 134.449C153.796 132.005 149.279 128.125 145.878 122.811C142.583 117.391 140.936 110.217 140.936 101.289V57.1285C140.936 48.2008 142.583 41.0799 145.878 35.7657C149.279 30.3453 153.743 26.466 159.27 24.1278C164.903 21.6833 171.067 20.461 177.763 20.461C185.203 20.461 191.739 21.6833 197.372 24.1278C203.111 26.5723 207.628 30.0796 210.923 34.6498C214.218 39.2199 215.865 44.6935 215.865 51.0704C215.865 55.0029 215.015 57.66 213.314 59.0416C211.614 60.317 209.01 60.9547 205.503 60.9547C202.739 60.9547 200.348 60.4764 198.329 59.5199C196.309 58.5634 195.246 56.8628 195.14 54.4183C195.034 51.8675 194.502 49.423 193.546 47.0848C192.696 44.6403 191.101 42.621 188.763 41.0267C186.531 39.4325 183.077 38.6353 178.401 38.6353C173.193 38.6353 169.101 40.1765 166.125 43.2587C163.255 46.2346 161.82 50.8579 161.82 57.1285V101.289C161.82 107.56 163.255 112.236 166.125 115.318C169.101 118.294 173.193 119.782 178.401 119.782C183.608 119.782 187.7 118.294 190.676 115.318C193.652 112.236 195.14 107.56 195.14 101.289V92.0424H182.227C180.207 92.0424 178.613 91.1922 177.444 89.4916C176.381 87.7911 175.85 85.9312 175.85 83.9118C175.85 81.8924 176.381 80.0325 177.444 78.3319C178.613 76.6314 180.207 75.7812 182.227 75.7812H209.329C211.454 75.7812 213.049 76.472 214.111 77.8537C215.281 79.1291 215.865 80.7233 215.865 82.6364V101.289C215.865 110.217 214.218 117.391 210.923 122.811C207.628 128.125 203.111 132.005 197.372 134.449C191.739 136.787 185.415 137.957 178.401 137.957ZM263.286 138.435C256.378 138.435 250.107 137.425 244.474 135.406C238.948 133.386 234.537 130.889 231.242 127.913C228.054 124.831 226.459 121.748 226.459 118.666C226.459 117.178 226.831 115.584 227.575 113.884C228.426 112.077 229.542 110.589 230.923 109.42C232.305 108.144 233.846 107.507 235.547 107.507C237.247 107.507 238.841 108.144 240.329 109.42C241.817 110.589 243.518 112.024 245.431 113.724C247.344 115.318 249.682 116.753 252.446 118.029C255.209 119.198 258.61 119.782 262.649 119.782C265.837 119.782 268.76 119.304 271.417 118.347C274.18 117.285 276.359 115.743 277.953 113.724C279.654 111.705 280.504 109.101 280.504 105.912C280.504 102.511 279.601 99.6416 277.794 97.3034C275.987 94.9652 273.543 92.9458 270.46 91.2453C267.378 89.5448 264.03 87.8974 260.417 86.3031C256.803 84.7089 253.136 83.0084 249.416 81.2016C245.803 79.3948 242.455 77.216 239.373 74.6652C236.397 72.1144 233.952 68.9791 232.039 65.2592C230.232 61.5393 229.329 56.9691 229.329 51.5487C229.329 45.5969 230.445 40.6016 232.677 36.5628C235.015 32.5241 238.044 29.2825 241.764 26.838C245.59 24.2872 249.788 22.4804 254.359 21.4176C258.929 20.2484 263.499 19.6639 268.069 19.6639C270.514 19.6639 273.383 19.8765 276.678 20.3016C280.079 20.6204 283.427 21.2581 286.722 22.2147C290.123 23.1712 292.886 24.4998 295.012 26.2003C297.244 27.7945 298.36 29.9202 298.36 32.5772C298.36 33.7463 298.041 35.1812 297.403 36.8817C296.872 38.5822 295.968 40.1233 294.693 41.505C293.524 42.8867 291.983 43.5775 290.07 43.5775C288.369 43.5775 286.669 43.0992 284.968 42.1427C283.374 41.0799 281.248 40.0702 278.591 39.1136C276.04 38.0508 272.533 37.5194 268.069 37.5194C264.349 37.5194 261.108 37.9977 258.344 38.9542C255.581 39.9107 253.508 41.2924 252.127 43.0992C250.745 44.7997 250.054 46.9785 250.054 49.6356C250.054 52.399 250.958 54.7372 252.764 56.6503C254.677 58.5634 257.122 60.2639 260.098 61.7518C263.18 63.2398 266.528 64.7278 270.142 66.2157C273.755 67.7037 277.369 69.4573 280.982 71.4767C284.702 73.3898 288.103 75.728 291.186 78.4914C294.268 81.2547 296.712 84.7089 298.519 88.8539C300.326 92.8927 301.229 97.888 301.229 103.84C301.229 111.386 299.582 117.763 296.287 122.971C292.992 128.072 288.475 131.952 282.736 134.609C277.103 137.159 270.62 138.435 263.286 138.435ZM324.579 137C321.815 137 319.583 136.362 317.883 135.087C316.289 133.812 315.491 132.27 315.491 130.464V27.1568C315.491 24.9249 316.448 23.2775 318.361 22.2147C320.274 21.0456 322.347 20.461 324.579 20.461H355.507C360.927 20.461 366.082 21.2581 370.971 22.8524C375.86 24.3403 379.846 27.1037 382.928 31.1424C386.01 35.1812 387.551 40.9736 387.551 48.5196C387.551 55.0029 386.329 60.4233 383.884 64.7809C381.44 69.0322 378.145 72.0613 374 73.8681C377.295 75.0372 380.165 76.6846 382.609 78.8102C385.054 80.8296 386.967 83.5398 388.348 86.9408C389.73 90.2356 390.421 94.5401 390.421 99.8542V103.202C390.421 111.492 388.986 118.135 386.116 123.13C383.353 128.019 379.527 131.58 374.638 133.812C369.855 135.937 364.488 137 358.536 137H324.579ZM336.217 118.826H354.072C358.961 118.826 362.787 117.444 365.551 114.681C368.314 111.917 369.696 107.507 369.696 101.448V98.8976C369.696 92.627 368.314 88.2694 365.551 85.8249C362.787 83.2741 358.961 81.9987 354.072 81.9987H336.217V118.826ZM336.217 65.7374H354.072C358.43 65.7374 361.618 64.4621 363.638 61.9113C365.763 59.3605 366.826 56.0657 366.826 52.027C366.826 49.1573 366.295 46.766 365.232 44.8529C364.169 42.8335 362.681 41.2924 360.768 40.2296C358.855 39.1668 356.57 38.6353 353.913 38.6353H336.217V65.7374ZM441.201 137.957C434.186 137.957 427.863 136.787 422.23 134.449C416.597 132.005 412.08 128.125 408.679 122.811C405.384 117.391 403.736 110.217 403.736 101.289V57.1285C403.736 48.2008 405.384 41.0799 408.679 35.7657C412.08 30.3453 416.543 26.466 422.07 24.1278C427.703 21.6833 434.08 20.461 441.201 20.461C448.216 20.461 454.54 21.6833 460.173 24.1278C465.912 26.466 470.429 30.3453 473.724 35.7657C477.018 41.0799 478.666 48.2008 478.666 57.1285V101.289C478.666 110.217 477.018 117.391 473.724 122.811C470.429 128.125 465.912 132.005 460.173 134.449C454.54 136.787 448.216 137.957 441.201 137.957ZM441.201 119.782C446.409 119.782 450.501 118.294 453.477 115.318C456.453 112.342 457.941 107.666 457.941 101.289V57.1285C457.941 50.7516 456.453 46.0751 453.477 43.0992C450.501 40.1233 446.409 38.6353 441.201 38.6353C435.993 38.6353 431.901 40.1233 428.925 43.0992C426.056 46.0751 424.621 50.7516 424.621 57.1285V101.289C424.621 107.666 426.056 112.342 428.925 115.318C431.901 118.294 435.993 119.782 441.201 119.782ZM501.498 137C499.585 137 497.619 136.628 495.6 135.884C493.58 135.14 491.88 134.13 490.498 132.855C489.116 131.58 488.425 130.092 488.425 128.391C488.425 128.072 488.479 127.541 488.585 126.797L519.354 26.5191C520.098 24.1809 521.745 22.4272 524.296 21.2581C526.953 20.089 529.769 19.5045 532.745 19.5045C535.828 19.5045 538.644 20.089 541.195 21.2581C543.746 22.4272 545.393 24.1809 546.137 26.5191L576.906 126.797C577.118 127.541 577.225 128.072 577.225 128.391C577.225 129.985 576.481 131.473 574.993 132.855C573.611 134.13 571.911 135.14 569.891 135.884C567.872 136.628 565.906 137 563.992 137C562.292 137 560.804 136.734 559.529 136.203C558.36 135.565 557.562 134.449 557.137 132.855L551.079 111.652H514.412L508.513 132.855C508.088 134.449 507.238 135.565 505.962 136.203C504.687 136.734 503.199 137 501.498 137ZM518.875 95.3903H546.615L532.745 46.4471L518.875 95.3903ZM652.029 137.797C650.648 137.797 649.266 137.372 647.884 136.522C646.609 135.671 645.599 134.449 644.855 132.855L622.217 88.8539H608.826V130.304C608.826 132.536 607.763 134.237 605.637 135.406C603.511 136.469 601.12 137 598.463 137C595.912 137 593.521 136.469 591.289 135.406C589.163 134.237 588.1 132.536 588.1 130.304V26.9974C588.1 25.1906 588.685 23.6495 589.854 22.3741C591.129 21.0987 592.777 20.461 594.796 20.461H626.362C633.377 20.461 639.701 21.4707 645.334 23.4901C651.073 25.5094 655.643 28.9636 659.044 33.8526C662.445 38.6353 664.146 45.278 664.146 53.7806C664.146 59.945 663.242 65.206 661.435 69.5636C659.629 73.8149 657.131 77.2691 653.943 79.9262C650.86 82.477 647.3 84.3901 643.261 85.6654L664.305 124.405C664.518 124.831 664.677 125.309 664.783 125.84C664.89 126.265 664.943 126.637 664.943 126.956C664.943 128.657 664.305 130.357 663.03 132.058C661.754 133.758 660.107 135.14 658.088 136.203C656.174 137.266 654.155 137.797 652.029 137.797ZM608.826 72.5927H626.362C631.57 72.5927 635.715 71.3173 638.797 68.7665C641.879 66.2157 643.421 61.8581 643.421 55.6937C643.421 49.3168 641.879 44.906 638.797 42.4615C635.715 39.9107 631.57 38.6353 626.362 38.6353H608.826V72.5927ZM687.798 137C685.034 137 682.802 136.362 681.102 135.087C679.508 133.812 678.711 132.27 678.711 130.464V26.9974C678.711 25.1906 679.508 23.6495 681.102 22.3741C682.802 21.0987 685.034 20.461 687.798 20.461H716.016C723.137 20.461 729.514 21.6833 735.147 24.1278C740.78 26.466 745.244 30.3453 748.538 35.7657C751.939 41.0799 753.64 48.2008 753.64 57.1285V100.332C753.64 109.26 751.939 116.434 748.538 121.855C745.244 127.169 740.78 131.048 735.147 133.493C729.514 135.831 723.137 137 716.016 137H687.798ZM699.436 118.826H716.016C721.33 118.826 725.475 117.338 728.451 114.362C731.427 111.28 732.915 106.603 732.915 100.332V57.1285C732.915 50.8579 731.427 46.2346 728.451 43.2587C725.475 40.1765 721.383 38.6353 716.175 38.6353H699.436V118.826Z" fill="#399F89"/>
<path d="M131.678 162.357L124.334 181.821H121.402L114.058 162.357H116.766L122.882 179.14L128.997 162.357H131.678ZM135.777 164.033C135.293 164.033 134.883 163.865 134.548 163.53C134.213 163.195 134.046 162.786 134.046 162.302C134.046 161.817 134.213 161.408 134.548 161.073C134.883 160.738 135.293 160.57 135.777 160.57C136.242 160.57 136.633 160.738 136.95 161.073C137.285 161.408 137.452 161.817 137.452 162.302C137.452 162.786 137.285 163.195 136.95 163.53C136.633 163.865 136.242 164.033 135.777 164.033ZM137.006 166.518V181.821H134.464V166.518H137.006ZM143.878 169.003C144.324 168.128 144.957 167.449 145.776 166.965C146.614 166.481 147.629 166.239 148.82 166.239V168.864H148.15C145.302 168.864 143.878 170.409 143.878 173.499V181.821H141.336V166.518H143.878V169.003ZM154.853 168.612V177.632C154.853 178.377 155.011 178.907 155.328 179.224C155.644 179.522 156.194 179.671 156.976 179.671H158.846V181.821H156.557C155.142 181.821 154.081 181.495 153.373 180.843C152.666 180.192 152.312 179.121 152.312 177.632V168.612H150.329V166.518H152.312V162.665H154.853V166.518H158.846V168.612H154.853ZM175.497 166.518V181.821H172.956V179.559C172.472 180.341 171.792 180.955 170.917 181.402C170.061 181.83 169.111 182.044 168.069 182.044C166.877 182.044 165.807 181.802 164.857 181.318C163.908 180.815 163.154 180.071 162.596 179.084C162.056 178.097 161.786 176.897 161.786 175.482V166.518H164.299V175.147C164.299 176.655 164.681 177.818 165.444 178.637C166.207 179.438 167.25 179.838 168.571 179.838C169.93 179.838 171.001 179.419 171.783 178.582C172.565 177.744 172.956 176.524 172.956 174.923V166.518H175.497ZM178.838 174.114C178.838 172.55 179.154 171.182 179.787 170.009C180.42 168.817 181.286 167.896 182.384 167.244C183.501 166.593 184.739 166.267 186.098 166.267C187.439 166.267 188.602 166.555 189.589 167.132C190.575 167.71 191.311 168.436 191.795 169.311V166.518H194.364V181.821H191.795V178.972C191.292 179.866 190.538 180.611 189.533 181.206C188.546 181.784 187.392 182.072 186.07 182.072C184.711 182.072 183.483 181.737 182.384 181.067C181.286 180.397 180.42 179.456 179.787 178.246C179.154 177.036 178.838 175.659 178.838 174.114ZM191.795 174.142C191.795 172.987 191.562 171.982 191.097 171.126C190.631 170.269 189.998 169.618 189.198 169.171C188.416 168.706 187.55 168.473 186.601 168.473C185.651 168.473 184.786 168.696 184.004 169.143C183.222 169.59 182.598 170.241 182.133 171.098C181.667 171.954 181.435 172.959 181.435 174.114C181.435 175.286 181.667 176.31 182.133 177.185C182.598 178.042 183.222 178.703 184.004 179.168C184.786 179.615 185.651 179.838 186.601 179.838C187.55 179.838 188.416 179.615 189.198 179.168C189.998 178.703 190.631 178.042 191.097 177.185C191.562 176.31 191.795 175.296 191.795 174.142ZM201.199 161.157V181.821H198.658V161.157H201.199ZM212.025 172.075C212.025 170.176 212.454 168.473 213.31 166.965C214.166 165.438 215.33 164.247 216.801 163.391C218.29 162.534 219.937 162.106 221.743 162.106C223.865 162.106 225.718 162.618 227.3 163.642C228.883 164.666 230.037 166.118 230.763 167.998H227.719C227.179 166.825 226.397 165.922 225.373 165.289C224.368 164.656 223.158 164.34 221.743 164.34C220.384 164.34 219.165 164.656 218.085 165.289C217.005 165.922 216.158 166.825 215.544 167.998C214.93 169.152 214.622 170.511 214.622 172.075C214.622 173.62 214.93 174.979 215.544 176.152C216.158 177.306 217.005 178.2 218.085 178.833C219.165 179.466 220.384 179.782 221.743 179.782C223.158 179.782 224.368 179.475 225.373 178.861C226.397 178.228 227.179 177.325 227.719 176.152H230.763C230.037 178.014 228.883 179.456 227.3 180.48C225.718 181.486 223.865 181.988 221.743 181.988C219.937 181.988 218.29 181.569 216.801 180.732C215.33 179.875 214.166 178.693 213.31 177.185C212.454 175.677 212.025 173.974 212.025 172.075ZM241.219 182.072C239.786 182.072 238.483 181.746 237.31 181.095C236.156 180.443 235.244 179.522 234.573 178.33C233.922 177.12 233.596 175.724 233.596 174.142C233.596 172.578 233.931 171.2 234.601 170.009C235.29 168.799 236.221 167.877 237.394 167.244C238.567 166.593 239.879 166.267 241.331 166.267C242.783 166.267 244.096 166.593 245.269 167.244C246.441 167.877 247.363 168.789 248.033 169.981C248.722 171.172 249.066 172.559 249.066 174.142C249.066 175.724 248.713 177.12 248.005 178.33C247.316 179.522 246.376 180.443 245.185 181.095C243.993 181.746 242.672 182.072 241.219 182.072ZM241.219 179.838C242.132 179.838 242.988 179.624 243.789 179.196C244.589 178.768 245.231 178.125 245.715 177.269C246.218 176.413 246.469 175.37 246.469 174.142C246.469 172.913 246.227 171.87 245.743 171.014C245.259 170.158 244.626 169.525 243.844 169.115C243.062 168.687 242.215 168.473 241.303 168.473C240.372 168.473 239.516 168.687 238.734 169.115C237.971 169.525 237.357 170.158 236.891 171.014C236.426 171.87 236.193 172.913 236.193 174.142C236.193 175.389 236.416 176.441 236.863 177.297C237.329 178.153 237.943 178.796 238.706 179.224C239.47 179.633 240.307 179.838 241.219 179.838ZM259.863 166.239C261.725 166.239 263.233 166.807 264.387 167.942C265.541 169.059 266.118 170.679 266.118 172.801V181.821H263.605V173.164C263.605 171.638 263.223 170.474 262.46 169.674C261.697 168.854 260.654 168.445 259.333 168.445C257.992 168.445 256.922 168.864 256.121 169.702C255.339 170.539 254.949 171.759 254.949 173.36V181.821H252.407V166.518H254.949V168.696C255.451 167.914 256.131 167.309 256.987 166.881C257.862 166.453 258.821 166.239 259.863 166.239ZM273.369 168.612V177.632C273.369 178.377 273.527 178.907 273.844 179.224C274.16 179.522 274.709 179.671 275.491 179.671H277.362V181.821H275.072C273.657 181.821 272.596 181.495 271.889 180.843C271.181 180.192 270.828 179.121 270.828 177.632V168.612H268.845V166.518H270.828V162.665H273.369V166.518H277.362V168.612H273.369ZM294.403 173.583C294.403 174.067 294.375 174.579 294.319 175.119H282.089C282.182 176.627 282.694 177.809 283.624 178.665C284.574 179.503 285.719 179.922 287.059 179.922C288.157 179.922 289.07 179.671 289.796 179.168C290.54 178.647 291.062 177.958 291.359 177.102H294.096C293.687 178.572 292.867 179.773 291.639 180.704C290.41 181.616 288.883 182.072 287.059 182.072C285.607 182.072 284.304 181.746 283.15 181.095C282.014 180.443 281.12 179.522 280.469 178.33C279.817 177.12 279.492 175.724 279.492 174.142C279.492 172.559 279.808 171.172 280.441 169.981C281.074 168.789 281.958 167.877 283.094 167.244C284.248 166.593 285.57 166.267 287.059 166.267C288.511 166.267 289.796 166.583 290.913 167.216C292.03 167.849 292.886 168.724 293.482 169.841C294.096 170.939 294.403 172.187 294.403 173.583ZM291.778 173.052C291.778 172.084 291.564 171.256 291.136 170.567C290.708 169.86 290.121 169.329 289.377 168.975C288.651 168.603 287.841 168.417 286.947 168.417C285.663 168.417 284.564 168.827 283.652 169.646C282.759 170.465 282.247 171.6 282.116 173.052H291.778ZM305.213 166.239C307.075 166.239 308.583 166.807 309.737 167.942C310.891 169.059 311.468 170.679 311.468 172.801V181.821H308.955V173.164C308.955 171.638 308.574 170.474 307.81 169.674C307.047 168.854 306.005 168.445 304.683 168.445C303.342 168.445 302.272 168.864 301.471 169.702C300.69 170.539 300.299 171.759 300.299 173.36V181.821H297.757V166.518H300.299V168.696C300.801 167.914 301.481 167.309 302.337 166.881C303.212 166.453 304.171 166.239 305.213 166.239ZM318.719 168.612V177.632C318.719 178.377 318.877 178.907 319.194 179.224C319.51 179.522 320.059 179.671 320.841 179.671H322.712V181.821H320.422C319.008 181.821 317.946 181.495 317.239 180.843C316.532 180.192 316.178 179.121 316.178 177.632V168.612H314.195V166.518H316.178V162.665H318.719V166.518H322.712V168.612H318.719ZM335.777 179.754H342.591V181.821H333.236V162.357H335.777V179.754ZM359.251 173.583C359.251 174.067 359.223 174.579 359.168 175.119H346.937C347.03 176.627 347.542 177.809 348.473 178.665C349.422 179.503 350.567 179.922 351.907 179.922C353.006 179.922 353.918 179.671 354.644 179.168C355.389 178.647 355.91 177.958 356.208 177.102H358.944C358.535 178.572 357.716 179.773 356.487 180.704C355.258 181.616 353.732 182.072 351.907 182.072C350.455 182.072 349.152 181.746 347.998 181.095C346.862 180.443 345.969 179.522 345.317 178.33C344.666 177.12 344.34 175.724 344.34 174.142C344.34 172.559 344.656 171.172 345.289 169.981C345.922 168.789 346.806 167.877 347.942 167.244C349.096 166.593 350.418 166.267 351.907 166.267C353.359 166.267 354.644 166.583 355.761 167.216C356.878 167.849 357.734 168.724 358.33 169.841C358.944 170.939 359.251 172.187 359.251 173.583ZM356.627 173.052C356.627 172.084 356.412 171.256 355.984 170.567C355.556 169.86 354.97 169.329 354.225 168.975C353.499 168.603 352.689 168.417 351.796 168.417C350.511 168.417 349.413 168.827 348.5 169.646C347.607 170.465 347.095 171.6 346.965 173.052H356.627ZM361.656 174.114C361.656 172.55 361.973 171.182 362.606 170.009C363.239 168.817 364.104 167.896 365.203 167.244C366.32 166.593 367.558 166.267 368.917 166.267C370.257 166.267 371.42 166.555 372.407 167.132C373.394 167.71 374.129 168.436 374.613 169.311V166.518H377.182V181.821H374.613V178.972C374.111 179.866 373.357 180.611 372.351 181.206C371.365 181.784 370.21 182.072 368.889 182.072C367.53 182.072 366.301 181.737 365.203 181.067C364.104 180.397 363.239 179.456 362.606 178.246C361.973 177.036 361.656 175.659 361.656 174.114ZM374.613 174.142C374.613 172.987 374.38 171.982 373.915 171.126C373.45 170.269 372.817 169.618 372.016 169.171C371.234 168.706 370.369 168.473 369.419 168.473C368.47 168.473 367.604 168.696 366.822 169.143C366.04 169.59 365.417 170.241 364.951 171.098C364.486 171.954 364.253 172.959 364.253 174.114C364.253 175.286 364.486 176.31 364.951 177.185C365.417 178.042 366.04 178.703 366.822 179.168C367.604 179.615 368.47 179.838 369.419 179.838C370.369 179.838 371.234 179.615 372.016 179.168C372.817 178.703 373.45 178.042 373.915 177.185C374.38 176.31 374.613 175.296 374.613 174.142ZM384.018 169.003C384.464 168.128 385.097 167.449 385.917 166.965C386.754 166.481 387.769 166.239 388.96 166.239V168.864H388.29C385.442 168.864 384.018 170.409 384.018 173.499V181.821H381.477V166.518H384.018V169.003ZM399.35 166.239C401.211 166.239 402.719 166.807 403.873 167.942C405.027 169.059 405.605 170.679 405.605 172.801V181.821H403.091V173.164C403.091 171.638 402.71 170.474 401.946 169.674C401.183 168.854 400.141 168.445 398.819 168.445C397.479 168.445 396.408 168.864 395.608 169.702C394.826 170.539 394.435 171.759 394.435 173.36V181.821H391.894V166.518H394.435V168.696C394.937 167.914 395.617 167.309 396.473 166.881C397.348 166.453 398.307 166.239 399.35 166.239ZM411.068 164.033C410.584 164.033 410.174 163.865 409.839 163.53C409.504 163.195 409.337 162.786 409.337 162.302C409.337 161.817 409.504 161.408 409.839 161.073C410.174 160.738 410.584 160.57 411.068 160.57C411.533 160.57 411.924 160.738 412.241 161.073C412.576 161.408 412.743 161.817 412.743 162.302C412.743 162.786 412.576 163.195 412.241 163.53C411.924 163.865 411.533 164.033 411.068 164.033ZM412.297 166.518V181.821H409.756V166.518H412.297ZM424.083 166.239C425.945 166.239 427.453 166.807 428.607 167.942C429.761 169.059 430.339 170.679 430.339 172.801V181.821H427.825V173.164C427.825 171.638 427.444 170.474 426.68 169.674C425.917 168.854 424.875 168.445 423.553 168.445C422.213 168.445 421.142 168.864 420.342 169.702C419.56 170.539 419.169 171.759 419.169 173.36V181.821H416.628V166.518H419.169V168.696C419.671 167.914 420.351 167.309 421.207 166.881C422.082 166.453 423.041 166.239 424.083 166.239ZM440.8 166.267C442.122 166.267 443.276 166.555 444.263 167.132C445.268 167.71 446.013 168.436 446.497 169.311V166.518H449.066V182.156C449.066 183.552 448.768 184.79 448.173 185.87C447.577 186.968 446.72 187.825 445.603 188.439C444.505 189.053 443.221 189.36 441.75 189.36C439.739 189.36 438.064 188.886 436.723 187.936C435.383 186.987 434.592 185.693 434.35 184.055H436.863C437.142 184.986 437.719 185.73 438.594 186.289C439.469 186.866 440.521 187.154 441.75 187.154C443.146 187.154 444.282 186.717 445.157 185.842C446.05 184.967 446.497 183.738 446.497 182.156V178.945C445.994 179.838 445.25 180.583 444.263 181.178C443.276 181.774 442.122 182.072 440.8 182.072C439.441 182.072 438.203 181.737 437.086 181.067C435.988 180.397 435.122 179.456 434.489 178.246C433.857 177.036 433.54 175.659 433.54 174.114C433.54 172.55 433.857 171.182 434.489 170.009C435.122 168.817 435.988 167.896 437.086 167.244C438.203 166.593 439.441 166.267 440.8 166.267ZM446.497 174.142C446.497 172.987 446.264 171.982 445.799 171.126C445.334 170.269 444.701 169.618 443.9 169.171C443.118 168.706 442.253 168.473 441.303 168.473C440.354 168.473 439.488 168.696 438.706 169.143C437.924 169.59 437.301 170.241 436.835 171.098C436.37 171.954 436.137 172.959 436.137 174.114C436.137 175.286 436.37 176.31 436.835 177.185C437.301 178.042 437.924 178.703 438.706 179.168C439.488 179.615 440.354 179.838 441.303 179.838C442.253 179.838 443.118 179.615 443.9 179.168C444.701 178.703 445.334 178.042 445.799 177.185C446.264 176.31 446.497 175.296 446.497 174.142ZM480.548 162.497V181.821H478.007V167.412L471.584 181.821H469.797L463.346 167.384V181.821H460.805V162.497H463.542L470.69 178.47L477.839 162.497H480.548ZM483.908 174.114C483.908 172.55 484.224 171.182 484.857 170.009C485.49 168.817 486.356 167.896 487.454 167.244C488.571 166.593 489.809 166.267 491.168 166.267C492.509 166.267 493.672 166.555 494.659 167.132C495.645 167.71 496.381 168.436 496.865 169.311V166.518H499.434V181.821H496.865V178.972C496.362 179.866 495.608 180.611 494.603 181.206C493.616 181.784 492.462 182.072 491.14 182.072C489.781 182.072 488.553 181.737 487.454 181.067C486.356 180.397 485.49 179.456 484.857 178.246C484.224 177.036 483.908 175.659 483.908 174.114ZM496.865 174.142C496.865 172.987 496.632 171.982 496.167 171.126C495.701 170.269 495.068 169.618 494.268 169.171C493.486 168.706 492.62 168.473 491.671 168.473C490.721 168.473 489.856 168.696 489.074 169.143C488.292 169.59 487.668 170.241 487.203 171.098C486.738 171.954 486.505 172.959 486.505 174.114C486.505 175.286 486.738 176.31 487.203 177.185C487.668 178.042 488.292 178.703 489.074 179.168C489.856 179.615 490.721 179.838 491.671 179.838C492.62 179.838 493.486 179.615 494.268 179.168C495.068 178.703 495.701 178.042 496.167 177.185C496.632 176.31 496.865 175.296 496.865 174.142ZM511.184 166.239C513.046 166.239 514.554 166.807 515.708 167.942C516.862 169.059 517.439 170.679 517.439 172.801V181.821H514.926V173.164C514.926 171.638 514.544 170.474 513.781 169.674C513.018 168.854 511.975 168.445 510.653 168.445C509.313 168.445 508.243 168.864 507.442 169.702C506.66 170.539 506.269 171.759 506.269 173.36V181.821H503.728V166.518H506.269V168.696C506.772 167.914 507.451 167.309 508.308 166.881C509.183 166.453 510.141 166.239 511.184 166.239ZM520.641 174.114C520.641 172.55 520.957 171.182 521.59 170.009C522.223 168.817 523.089 167.896 524.187 167.244C525.304 166.593 526.542 166.267 527.901 166.267C529.241 166.267 530.405 166.555 531.392 167.132C532.378 167.71 533.114 168.436 533.598 169.311V166.518H536.167V181.821H533.598V178.972C533.095 179.866 532.341 180.611 531.336 181.206C530.349 181.784 529.195 182.072 527.873 182.072C526.514 182.072 525.285 181.737 524.187 181.067C523.089 180.397 522.223 179.456 521.59 178.246C520.957 177.036 520.641 175.659 520.641 174.114ZM533.598 174.142C533.598 172.987 533.365 171.982 532.899 171.126C532.434 170.269 531.801 169.618 531.001 169.171C530.219 168.706 529.353 168.473 528.404 168.473C527.454 168.473 526.588 168.696 525.807 169.143C525.025 169.59 524.401 170.241 523.936 171.098C523.47 171.954 523.238 172.959 523.238 174.114C523.238 175.286 523.47 176.31 523.936 177.185C524.401 178.042 525.025 178.703 525.807 179.168C526.588 179.615 527.454 179.838 528.404 179.838C529.353 179.838 530.219 179.615 531.001 179.168C531.801 178.703 532.434 178.042 532.899 177.185C533.365 176.31 533.598 175.296 533.598 174.142ZM546.772 166.267C548.094 166.267 549.248 166.555 550.234 167.132C551.24 167.71 551.984 168.436 552.468 169.311V166.518H555.037V182.156C555.037 183.552 554.74 184.79 554.144 185.87C553.548 186.968 552.692 187.825 551.575 188.439C550.476 189.053 549.192 189.36 547.721 189.36C545.711 189.36 544.035 188.886 542.695 187.936C541.354 186.987 540.563 185.693 540.321 184.055H542.834C543.114 184.986 543.691 185.73 544.566 186.289C545.441 186.866 546.493 187.154 547.721 187.154C549.117 187.154 550.253 186.717 551.128 185.842C552.022 184.967 552.468 183.738 552.468 182.156V178.945C551.966 179.838 551.221 180.583 550.234 181.178C549.248 181.774 548.094 182.072 546.772 182.072C545.413 182.072 544.175 181.737 543.058 181.067C541.96 180.397 541.094 179.456 540.461 178.246C539.828 177.036 539.511 175.659 539.511 174.114C539.511 172.55 539.828 171.182 540.461 170.009C541.094 168.817 541.96 167.896 543.058 167.244C544.175 166.593 545.413 166.267 546.772 166.267ZM552.468 174.142C552.468 172.987 552.236 171.982 551.77 171.126C551.305 170.269 550.672 169.618 549.871 169.171C549.09 168.706 548.224 168.473 547.274 168.473C546.325 168.473 545.459 168.696 544.677 169.143C543.896 169.59 543.272 170.241 542.807 171.098C542.341 171.954 542.108 172.959 542.108 174.114C542.108 175.286 542.341 176.31 542.807 177.185C543.272 178.042 543.896 178.703 544.677 179.168C545.459 179.615 546.325 179.838 547.274 179.838C548.224 179.838 549.09 179.615 549.871 179.168C550.672 178.703 551.305 178.042 551.77 177.185C552.236 176.31 552.468 175.296 552.468 174.142ZM573.294 173.583C573.294 174.067 573.266 174.579 573.21 175.119H560.979C561.072 176.627 561.584 177.809 562.515 178.665C563.465 179.503 564.61 179.922 565.95 179.922C567.048 179.922 567.96 179.671 568.686 179.168C569.431 178.647 569.952 177.958 570.25 177.102H572.987C572.577 178.572 571.758 179.773 570.53 180.704C569.301 181.616 567.774 182.072 565.95 182.072C564.498 182.072 563.195 181.746 562.04 181.095C560.905 180.443 560.011 179.522 559.36 178.33C558.708 177.12 558.382 175.724 558.382 174.142C558.382 172.559 558.699 171.172 559.332 169.981C559.965 168.789 560.849 167.877 561.985 167.244C563.139 166.593 564.461 166.267 565.95 166.267C567.402 166.267 568.686 166.583 569.803 167.216C570.92 167.849 571.777 168.724 572.373 169.841C572.987 170.939 573.294 172.187 573.294 173.583ZM570.669 173.052C570.669 172.084 570.455 171.256 570.027 170.567C569.599 169.86 569.012 169.329 568.268 168.975C567.542 168.603 566.732 168.417 565.838 168.417C564.554 168.417 563.455 168.827 562.543 169.646C561.65 170.465 561.138 171.6 561.007 173.052H570.669ZM595.051 166.239C596.242 166.239 597.303 166.49 598.234 166.993C599.165 167.477 599.9 168.212 600.44 169.199C600.98 170.186 601.25 171.386 601.25 172.801V181.821H598.737V173.164C598.737 171.638 598.355 170.474 597.592 169.674C596.847 168.854 595.832 168.445 594.548 168.445C593.226 168.445 592.174 168.873 591.392 169.729C590.611 170.567 590.22 171.787 590.22 173.388V181.821H587.706V173.164C587.706 171.638 587.325 170.474 586.561 169.674C585.817 168.854 584.802 168.445 583.518 168.445C582.196 168.445 581.144 168.873 580.362 169.729C579.58 170.567 579.189 171.787 579.189 173.388V181.821H576.648V166.518H579.189V168.724C579.692 167.924 580.362 167.309 581.2 166.881C582.056 166.453 582.996 166.239 584.02 166.239C585.305 166.239 586.44 166.527 587.427 167.105C588.414 167.682 589.149 168.529 589.633 169.646C590.061 168.566 590.769 167.728 591.755 167.132C592.742 166.537 593.84 166.239 595.051 166.239ZM619.38 173.583C619.38 174.067 619.352 174.579 619.297 175.119H607.066C607.159 176.627 607.671 177.809 608.602 178.665C609.551 179.503 610.696 179.922 612.036 179.922C613.135 179.922 614.047 179.671 614.773 179.168C615.518 178.647 616.039 177.958 616.337 177.102H619.073C618.664 178.572 617.845 179.773 616.616 180.704C615.387 181.616 613.861 182.072 612.036 182.072C610.584 182.072 609.281 181.746 608.127 181.095C606.991 180.443 606.098 179.522 605.446 178.33C604.794 177.12 604.469 175.724 604.469 174.142C604.469 172.559 604.785 171.172 605.418 169.981C606.051 168.789 606.935 167.877 608.071 167.244C609.225 166.593 610.547 166.267 612.036 166.267C613.488 166.267 614.773 166.583 615.89 167.216C617.007 167.849 617.863 168.724 618.459 169.841C619.073 170.939 619.38 172.187 619.38 173.583ZM616.755 173.052C616.755 172.084 616.541 171.256 616.113 170.567C615.685 169.86 615.099 169.329 614.354 168.975C613.628 168.603 612.818 168.417 611.925 168.417C610.64 168.417 609.542 168.827 608.629 169.646C607.736 170.465 607.224 171.6 607.094 173.052H616.755ZM630.19 166.239C632.052 166.239 633.56 166.807 634.714 167.942C635.868 169.059 636.446 170.679 636.446 172.801V181.821H633.932V173.164C633.932 171.638 633.551 170.474 632.787 169.674C632.024 168.854 630.982 168.445 629.66 168.445C628.32 168.445 627.249 168.864 626.449 169.702C625.667 170.539 625.276 171.759 625.276 173.36V181.821H622.735V166.518H625.276V168.696C625.778 167.914 626.458 167.309 627.314 166.881C628.189 166.453 629.148 166.239 630.19 166.239ZM643.696 168.612V177.632C643.696 178.377 643.854 178.907 644.171 179.224C644.487 179.522 645.036 179.671 645.818 179.671H647.689V181.821H645.399C643.985 181.821 642.924 181.495 642.216 180.843C641.509 180.192 641.155 179.121 641.155 177.632V168.612H639.172V166.518H641.155V162.665H643.696V166.518H647.689V168.612H643.696Z" fill="#393939"/>
</svg>
