<svg width="62" height="63" viewBox="0 0 62 63" fill="none" xmlns="http://www.w3.org/2000/svg">
<path fill-rule="evenodd" clip-rule="evenodd" d="M18.3019 50.0607C16.6242 50.0607 15.1885 49.4534 13.9949 48.2388C12.7991 47.0221 12.2013 45.5603 12.2013 43.8532V6.60836C12.2013 4.9013 12.7991 3.43944 13.9949 2.22277C15.1885 1.00818 16.6242 0.400879 18.3019 0.400879H54.9057C56.5834 0.400879 58.0201 1.00818 59.2158 2.22277C60.4095 3.43944 61.0063 4.9013 61.0063 6.60836V43.8532C61.0063 45.5603 60.4095 47.0221 59.2158 48.2388C58.0201 49.4534 56.5834 50.0607 54.9057 50.0607H18.3019ZM6.10063 62.4757C4.42296 62.4757 2.98728 61.8684 1.79359 60.6538C0.597862 59.4371 0 57.9752 0 56.2682V12.8158H6.10063V56.2682H48.8051V62.4757H6.10063ZM31.2931 37.8962C33.159 38.9474 35.3535 39.4731 37.8765 39.4731C39.8476 39.4731 41.6085 39.1051 43.1591 38.3692C44.736 37.6071 45.9843 36.5427 46.9042 35.1761C47.8503 33.7832 48.3234 32.1537 48.3234 30.2877C48.3234 28.5532 47.8897 27.042 47.0224 25.7542C46.1814 24.4664 45.0513 23.4677 43.6322 22.7581C42.213 22.0485 40.6098 21.6937 38.8227 21.6937C37.5086 21.6937 36.2997 21.8777 35.1958 22.2457C34.1183 22.5873 33.1853 23.1129 32.3969 23.8225C32.2644 23.9374 32.1359 24.057 32.0116 24.1815C32.0967 21.6138 32.7902 19.6544 34.092 18.3034C35.4849 16.858 37.3772 16.1352 39.7688 16.1352C40.7149 16.1352 41.6216 16.2404 42.4889 16.4506C43.3562 16.6346 44.1709 16.9894 44.9331 17.515L47.2984 12.8238C46.326 12.193 45.1696 11.72 43.8293 11.4046C42.4889 11.0892 41.0829 10.9315 39.6111 10.9315C36.8516 10.9315 34.4074 11.5097 32.2786 12.6661C30.1761 13.8225 28.5204 15.5045 27.3114 17.7121C26.1288 19.9198 25.5375 22.6136 25.5375 25.7936C25.5375 28.7634 26.0368 31.2601 27.0355 33.2838C28.0342 35.3075 29.4534 36.8449 31.2931 37.8962ZM39.8871 34.2299C39.2038 34.5453 38.4153 34.703 37.5217 34.703C36.4968 34.703 35.6295 34.5322 34.9199 34.1905C34.2103 33.8226 33.6584 33.3364 33.2642 32.7319C32.8699 32.1012 32.6728 31.3916 32.6728 30.6031C32.6728 29.7884 32.8699 29.0788 33.2642 28.4743C33.6847 27.8436 34.2497 27.3574 34.9593 27.0157C35.6689 26.6478 36.4968 26.4638 37.4429 26.4638C38.8621 26.4638 39.9922 26.8449 40.8332 27.607C41.7005 28.3429 42.1341 29.3416 42.1341 30.6031C42.1341 31.4178 41.937 32.1406 41.5428 32.7713C41.1486 33.4021 40.5967 33.8883 39.8871 34.2299Z" fill="#399F89"/>
</svg>
