<svg width="62" height="63" viewBox="0 0 62 63" fill="none" xmlns="http://www.w3.org/2000/svg">
<path fill-rule="evenodd" clip-rule="evenodd" d="M18.3019 50.0607C16.6242 50.0607 15.1885 49.4534 13.9949 48.2388C12.7991 47.0221 12.2013 45.5603 12.2013 43.8532V6.60836C12.2013 4.9013 12.7991 3.43944 13.9949 2.22277C15.1885 1.00818 16.6242 0.400879 18.3019 0.400879H54.9057C56.5834 0.400879 58.0201 1.00818 59.2158 2.22277C60.4095 3.43944 61.0063 4.9013 61.0063 6.60836V43.8532C61.0063 45.5603 60.4095 47.0221 59.2158 48.2388C58.0201 49.4534 56.5834 50.0607 54.9057 50.0607H18.3019ZM6.10063 62.4757C4.42296 62.4757 2.98728 61.8684 1.79359 60.6538C0.597862 59.4371 0 57.9752 0 56.2682V12.8158H6.10063V56.2682H48.8051V62.4757H6.10063ZM31.8988 38.4481C33.6334 39.1314 35.6571 39.4731 37.9698 39.4731C40.3089 39.4731 42.3457 39.1314 44.0802 38.4481C45.8411 37.7385 47.2077 36.7529 48.1801 35.4914C49.1525 34.2037 49.6387 32.7056 49.6387 30.9973C49.6387 29.289 49.1525 27.8436 48.1801 26.6609C47.4859 25.7739 46.5724 25.0496 45.4396 24.488C46.187 24.0255 46.8114 23.4752 47.3129 22.837C48.2064 21.7069 48.6532 20.3665 48.6532 18.8159C48.6532 17.1865 48.1933 15.7936 47.2734 14.6372C46.3799 13.4545 45.1315 12.5478 43.5283 11.9171C41.9515 11.2601 40.0986 10.9315 37.9698 10.9315C35.8936 10.9315 34.0539 11.2601 32.4508 11.9171C30.8476 12.5478 29.5992 13.4545 28.7057 14.6372C27.8121 15.7936 27.3653 17.1865 27.3653 18.8159C27.3653 20.3665 27.799 21.7069 28.6662 22.837C29.1825 23.4747 29.8127 24.0246 30.557 24.4869C29.4322 25.0487 28.5129 25.7733 27.799 26.6609C26.8528 27.8436 26.3798 29.289 26.3798 30.9973C26.3798 32.7056 26.866 34.2037 27.8384 35.4914C28.8108 36.7529 30.1643 37.7385 31.8988 38.4481ZM41.7543 33.7175C40.8345 34.427 39.573 34.7818 37.9698 34.7818C36.393 34.7818 35.1446 34.427 34.2247 33.7175C33.3049 33.0079 32.845 32.0354 32.845 30.8002C32.845 29.565 33.3049 28.6057 34.2247 27.9224C35.1446 27.2128 36.393 26.858 37.9698 26.858C39.573 26.858 40.8345 27.2128 41.7543 27.9224C42.7005 28.6057 43.1735 29.565 43.1735 30.8002C43.1735 32.0354 42.7005 33.0079 41.7543 33.7175ZM41.1236 21.5755C40.3614 22.1799 39.3102 22.4822 37.9698 22.4822C36.6558 22.4822 35.6177 22.1799 34.8555 21.5755C34.0933 20.971 33.7123 20.1431 33.7123 19.0919C33.7123 17.9881 34.1065 17.1339 34.8949 16.5295C35.6834 15.925 36.7083 15.6228 37.9698 15.6228C39.2576 15.6228 40.2957 15.925 41.0842 16.5295C41.8989 17.1339 42.3063 17.9881 42.3063 19.0919C42.3063 20.1431 41.912 20.971 41.1236 21.5755Z" fill="#399F89"/>
</svg>
