<svg width="62" height="63" viewBox="0 0 62 63" fill="none" xmlns="http://www.w3.org/2000/svg">
<path fill-rule="evenodd" clip-rule="evenodd" d="M18.3019 50.0607C16.6242 50.0607 15.1885 49.4534 13.9949 48.2388C12.7991 47.0221 12.2013 45.5603 12.2013 43.8532V6.60836C12.2013 4.9013 12.7991 3.43944 13.9949 2.22277C15.1885 1.00818 16.6242 0.400879 18.3019 0.400879H54.9057C56.5834 0.400879 58.0201 1.00818 59.2158 2.22277C60.4095 3.43944 61.0063 4.9013 61.0063 6.60836V43.8532C61.0063 45.5603 60.4095 47.0221 59.2158 48.2388C58.0201 49.4534 56.5834 50.0607 54.9057 50.0607H18.3019ZM6.10063 62.4757C4.42296 62.4757 2.98728 61.8684 1.79359 60.6538C0.597862 59.4371 0 57.9752 0 56.2682V12.8158H6.10063V56.2682H48.8051V62.4757H6.10063ZM29.7701 38.724C31.6623 39.2234 33.5677 39.4731 35.4863 39.4731C38.1144 39.4731 40.2695 39.0526 41.9515 38.2116C43.6335 37.3706 44.8818 36.2799 45.6965 34.9395C46.5113 33.5729 46.9186 32.1143 46.9186 30.5637C46.9186 28.1721 46.0513 26.2141 44.3168 24.6898C43.1022 23.6225 41.4817 22.9288 39.4553 22.6088L45.6571 15.5439V11.4046H26.3403V16.5295H38.0811L32.4113 22.9552V27.1734H35.3286C37.142 27.1734 38.456 27.4756 39.2708 28.0801C40.0855 28.6846 40.4928 29.5124 40.4928 30.5637C40.4928 31.6675 40.0329 32.5348 39.1131 33.1655C38.1932 33.7963 36.9317 34.1117 35.3286 34.1117C33.9094 34.1117 32.5033 33.8883 31.1104 33.4415C29.7175 32.9947 28.4954 32.3902 27.4442 31.6281L24.9606 36.5164C26.2746 37.4625 27.8778 38.1984 29.7701 38.724Z" fill="#399F89"/>
</svg>
