<svg width="62" height="63" viewBox="0 0 62 63" fill="none" xmlns="http://www.w3.org/2000/svg">
<path fill-rule="evenodd" clip-rule="evenodd" d="M18.3019 50.0607C16.6242 50.0607 15.1885 49.4534 13.9949 48.2388C12.7991 47.0221 12.2013 45.5603 12.2013 43.8532V6.60836C12.2013 4.9013 12.7991 3.43944 13.9949 2.22277C15.1885 1.00818 16.6242 0.400879 18.3019 0.400879H54.9057C56.5834 0.400879 58.0201 1.00818 59.2158 2.22277C60.4095 3.43944 61.0063 4.9013 61.0063 6.60836V43.8532C61.0063 45.5603 60.4095 47.0221 59.2158 48.2388C58.0201 49.4534 56.5834 50.0607 54.9057 50.0607H18.3019ZM6.10063 62.4757C4.42296 62.4757 2.98728 61.8684 1.79359 60.6538C0.597862 59.4371 0 57.9752 0 56.2682V12.8158H6.10063V56.2682H48.8051V62.4757H6.10063ZM31.2037 38.724C33.096 39.2234 35.0014 39.4731 36.9199 39.4731C39.548 39.4731 41.7031 39.0526 43.3851 38.2116C45.0934 37.3443 46.3549 36.2273 47.1696 34.8607C47.9843 33.4678 48.3917 31.9566 48.3917 30.3272C48.3917 28.6977 48.0106 27.2391 47.2485 25.9513C46.4863 24.6635 45.2642 23.6517 43.5822 22.9158C41.9265 22.1537 39.732 21.7726 36.9987 21.7726H34.7353L35.2017 16.5295H46.6965V11.4046H29.8634L28.4442 26.9369H35.5007C37.1827 26.9369 38.4836 27.0814 39.4035 27.3705C40.3496 27.6596 41.0066 28.0801 41.3746 28.632C41.7425 29.1839 41.9265 29.8147 41.9265 30.5243C41.9265 31.6544 41.4666 32.5348 40.5467 33.1655C39.6269 33.7963 38.3654 34.1117 36.7622 34.1117C35.343 34.1117 33.937 33.8883 32.5441 33.4415C31.1774 32.9947 29.9685 32.3902 28.9172 31.6281L26.3942 36.5164C27.7346 37.4625 29.3377 38.1984 31.2037 38.724Z" fill="#399F89"/>
</svg>
