<svg width="62" height="63" viewBox="0 0 62 63" fill="none" xmlns="http://www.w3.org/2000/svg">
<path fill-rule="evenodd" clip-rule="evenodd" d="M18.3019 50.0607C16.6242 50.0607 15.1885 49.4534 13.9949 48.2388C12.7991 47.0221 12.2013 45.5603 12.2013 43.8532V6.60836C12.2013 4.9013 12.7991 3.43944 13.9949 2.22277C15.1885 1.00818 16.6242 0.400879 18.3019 0.400879H54.9057C56.5834 0.400879 58.0201 1.00818 59.2158 2.22277C60.4095 3.43944 61.0063 4.9013 61.0063 6.60836V43.8532C61.0063 45.5603 60.4095 47.0221 59.2158 48.2388C58.0201 49.4534 56.5834 50.0607 54.9057 50.0607H18.3019ZM6.10063 62.4757C4.42296 62.4757 2.98728 61.8684 1.79359 60.6538C0.597862 59.4371 0 57.9752 0 56.2682V12.8158H6.10063V56.2682H48.8051V62.4757H6.10063ZM40.85 17.6083L30.9527 40H37.891L48.1407 16.5439V12.4046H26.025V22.1024H31.7017V17.6083H40.85Z" fill="#399F89"/>
</svg>
