<svg width="62" height="63" viewBox="0 0 62 63" fill="none" xmlns="http://www.w3.org/2000/svg">
<path fill-rule="evenodd" clip-rule="evenodd" d="M19.2956 50.0607C17.6179 50.0607 16.1822 49.4534 14.9885 48.2388C13.7928 47.0221 13.1949 45.5603 13.1949 43.8532V6.60836C13.1949 4.9013 13.7928 3.43944 14.9885 2.22277C16.1822 1.00818 17.6179 0.400879 19.2956 0.400879H55.8994C57.577 0.400879 59.0137 1.00818 60.2095 2.22277C61.4032 3.43944 62 4.9013 62 6.60836V43.8532C62 45.5603 61.4032 47.0221 60.2095 48.2388C59.0137 49.4534 57.577 50.0607 55.8994 50.0607H19.2956ZM7.09431 62.4757C5.41663 62.4757 3.98095 61.8684 2.78726 60.6538C1.59154 59.4371 0.993675 57.9752 0.993675 56.2682V12.8158H7.09431V56.2682H49.7987V62.4757H7.09431ZM27.3009 34.8607V39H48.1552V33.7963H36.2748L42.6361 27.8042C43.9239 26.5952 44.8963 25.5045 45.5533 24.5321C46.2366 23.5597 46.6834 22.6399 46.8937 21.7726C47.1302 20.879 47.2485 19.9855 47.2485 19.0919C47.2485 17.4099 46.8148 15.9644 45.9475 14.7555C45.1065 13.5465 43.9107 12.6135 42.3601 11.9565C40.8358 11.2732 39.0487 10.9315 36.9987 10.9315C34.5283 10.9315 32.3469 11.3915 30.4547 12.3113C28.5624 13.2312 27.0907 14.4795 26.0394 16.0564L30.6912 19.0525C31.3745 18.1063 32.2024 17.4099 33.1748 16.9631C34.1735 16.5163 35.251 16.2929 36.4074 16.2929C37.8529 16.2929 38.9436 16.5952 39.6794 17.1996C40.4416 17.7778 40.8227 18.6188 40.8227 19.7226C40.8227 20.1431 40.7438 20.6031 40.5861 21.1024C40.4547 21.6018 40.1919 22.1537 39.7977 22.7581C39.4035 23.3626 38.7859 24.0459 37.9449 24.8081L27.3009 34.8607Z" fill="#399F89"/>
</svg>
